<?xml version="1.0" encoding="UTF-8"?>
<svg version="1.1" xmlns="http://www.w3.org/2000/svg" width="1254" height="1254">
<path d="M0 0 C413.82 0 827.64 0 1254 0 C1254 413.82 1254 827.64 1254 1254 C840.18 1254 426.36 1254 0 1254 C0 840.18 0 426.36 0 0 Z " fill="#010204" transform="translate(0,0)"/>
<path d="M0 0 C60.90193966 0 60.90193966 0 80.40234375 18.390625 C88.34206066 26.36616019 95.84992517 34.63162502 102.88671875 43.41796875 C105.03619026 46.04421768 107.27460088 48.55633453 109.5625 51.0625 C112.48425004 54.26732617 115.25871355 57.52715741 117.9375 60.9375 C121.58226855 65.56577752 125.50243356 69.87955326 129.4921875 74.2109375 C132.72272181 77.80377473 135.74218496 81.54687186 138.77734375 85.3046875 C141.71140185 88.86268415 144.79261855 92.27202367 147.89453125 95.68359375 C151.93050439 100.12391299 155.85752179 104.65637846 159.75 109.22265625 C164.49079323 114.78122479 169.24086217 120.30937974 174.1875 125.6875 C178.28250297 130.1446013 182.12686947 134.75610234 185.89453125 139.4921875 C190.75637895 145.59303338 190.75637895 145.59303338 197.8125 148.0625 C207.10984974 149.59366591 212.41010787 153.45808204 218 161 C221.93673838 166.58762868 221.50418474 172.41116853 221 179 C220.08013925 183.65702989 218.76480031 188.15115922 217.375 192.6875 C217.01543213 193.90832275 216.65586426 195.12914551 216.28540039 196.38696289 C214.01258536 204.00111987 211.58317321 211.5536078 208.64013672 218.93823242 C207.18701875 222.72065733 206.52171435 225.16989627 208 229 C209.49932926 231.20095712 210.99997623 233.20483775 212.6875 235.25 C213.41030151 236.1476709 213.41030151 236.1476709 214.14770508 237.06347656 C215.75430476 239.05141122 217.37554067 241.02663831 219 243 C219.58136719 243.70898438 220.16273438 244.41796875 220.76171875 245.1484375 C223.75718943 248.80018267 226.7606008 252.44527722 229.76953125 256.0859375 C233.56671342 260.68293065 237.33371571 265.29759189 241 270 C241.67546875 270.84304688 242.3509375 271.68609375 243.046875 272.5546875 C248.44291118 279.55330586 251.8562407 286.78119694 255 295 C255.25040039 295.63212402 255.50080078 296.26424805 255.75878906 296.91552734 C261.51007903 311.44491257 266.01176709 326.41507153 270.64453125 341.328125 C270.85260406 341.99731461 271.06067688 342.66650421 271.27505493 343.35597229 C272.57346982 347.55530461 273.79879041 351.77197531 275 356 C275.79797188 358.5256908 276.60065397 361.04955141 277.4140625 363.5703125 C278.03277552 366.13590915 278.04099587 368.37134462 278 371 C272.60653012 371.02464849 267.21309275 371.04283531 261.81958008 371.05493164 C259.98331125 371.05997231 258.14704646 371.06680477 256.31079102 371.07543945 C253.67723599 371.08751672 251.04373384 371.09323081 248.41015625 371.09765625 C247.17109276 371.10539818 247.17109276 371.10539818 245.90699768 371.11329651 C243.93763632 371.11349205 241.96838386 371.06204152 240 371 C238.52140098 369.52140098 238.63447031 368.06944494 238.30859375 366.0078125 C236.76830484 358.03338744 233.84118816 350.48305449 231.0625 342.875 C230.77443481 342.08263947 230.48636963 341.29027893 230.1895752 340.47390747 C220.63499301 312.70460337 220.63499301 312.70460337 204 289 C202.83932194 287.7555123 201.68205224 286.5078411 200.52734375 285.2578125 C197.32717944 281.80551403 194.09839261 278.38159188 190.86035156 274.96484375 C183.2230515 266.89857198 175.77164419 258.82305404 169 250 C169.94759718 252.11745427 170.89625473 254.23442401 171.84619141 256.35083008 C172.66163333 258.16879745 173.47508892 259.98765701 174.28662109 261.80737305 C176.18613672 266.04932559 178.10573994 270.26780307 180.19140625 274.421875 C180.51939209 275.08437256 180.84737793 275.74687012 181.18530273 276.42944336 C182.07161847 278.2055289 182.97663695 279.97224578 183.8828125 281.73828125 C187.51042296 292.32938171 179.6836488 308.39655204 175 318 C170.15345578 326.90441196 163.77263972 334.52047442 157 342 C156.52401367 342.52803223 156.04802734 343.05606445 155.55761719 343.60009766 C143.49352231 356.7969906 129.55382657 366.09614153 111.56640625 368.60546875 C108.88962455 368.94323115 108.88962455 368.94323115 106 370 C104.09887695 370.02172852 104.09887695 370.02172852 101.98828125 369.87890625 C101.23095703 369.83056641 100.47363281 369.78222656 99.69335938 369.73242188 C98.90767578 369.67634766 98.12199219 369.62027344 97.3125 369.5625 C96.51521484 369.51029297 95.71792969 369.45808594 94.89648438 369.40429688 C92.93063478 369.27480978 90.96526335 369.13809959 89 369 C89.40992188 368.45730469 89.81984375 367.91460938 90.2421875 367.35546875 C90.78101563 366.64003906 91.31984375 365.92460938 91.875 365.1875 C92.67550781 364.12595703 92.67550781 364.12595703 93.4921875 363.04296875 C94.70814781 361.39543703 95.86416141 359.70375789 97 358 C97.66 358 98.32 358 99 358 C99.06316406 357.29875 99.12632812 356.5975 99.19140625 355.875 C100.24469457 352.12997486 102.38618927 349.82111539 104.9375 347 C105.95016562 345.84050199 106.96053108 344.67899163 107.96875 343.515625 C108.47921875 342.92845703 108.9896875 342.34128906 109.515625 341.73632812 C113.56525791 336.99932331 117.28989989 332.00428999 121 327 C121.50772949 326.31824707 122.01545898 325.63649414 122.53857422 324.93408203 C133.42980026 310.2202169 137.84947309 297.9505983 141 280 C141.13792969 279.22962402 141.27585937 278.45924805 141.41796875 277.66552734 C143.46054916 266.02939169 144.61931515 254.32018028 145.6875 242.5625 C145.75429962 241.82818756 145.82109924 241.09387512 145.8899231 240.33731079 C146.49042479 233.67233326 146.49042479 233.67233326 147 227 C147.07250977 226.10482666 147.14501953 225.20965332 147.21972656 224.28735352 C146.93968713 221.37214298 146.08272454 220.45669277 144.03515625 218.3984375 C143.40416016 217.74866943 142.77316406 217.09890137 142.12304688 216.42944336 C141.44306641 215.75147705 140.76308594 215.07351074 140.0625 214.375 C138.67566186 212.94925877 137.29154272 211.52086769 135.91015625 210.08984375 C135.2361377 209.39358887 134.56211914 208.69733398 133.86767578 207.97998047 C130.66749315 204.58736856 127.81091399 200.95568118 124.90625 197.30859375 C123.19431437 195.23532745 121.43174903 193.36589395 119.5 191.5 C116.75523193 188.84880357 114.37760545 186.0478143 112 183.0625 C104.60151412 173.86231031 96.35209994 165.3355514 88 157 C88.00276538 157.92029747 88.00553076 158.84059494 88.00837994 159.78878021 C88.07465653 182.19008654 88.12428877 204.59137594 88.15543652 226.9927597 C88.17090001 237.82593814 88.19197969 248.65905109 88.22631836 259.4921875 C88.2562365 268.93524549 88.27557877 278.37825605 88.28226548 287.82136011 C88.28617363 292.82059762 88.29534766 297.81969944 88.31719017 302.81889343 C88.3375934 307.52693893 88.34382602 312.23479321 88.33932304 316.94287872 C88.34014653 318.66819041 88.34608928 320.39350867 88.35761642 322.11878204 C88.37262088 324.48090962 88.36892507 326.84232242 88.36076355 329.20446777 C88.36950207 329.88153574 88.3782406 330.5586037 88.38724393 331.25618887 C88.34624045 335.66973633 87.43597395 339.12037913 85.7595337 343.13343668 C84.5838173 346.02277406 83.81481443 348.9914544 83 352 C82.34 352 81.68 352 81 352 C80.79375 352.86625 80.5875 353.7325 80.375 354.625 C78.69595403 358.74629466 76.56589514 361.35179846 73 364 C70.1875 364.75 70.1875 364.75 68 365 C67.67 365.66 67.34 366.32 67 367 C64.66989091 367.67784992 62.33640176 368.34416793 60 369 C59.34 369.66 58.68 370.32 58 371 C38.86 371 19.72 371 0 371 C0 248.57 0 126.14 0 0 Z " fill="#4EA23F" transform="translate(413,319)"/>
<path d="M0 0 C0 28.38 0 56.76 0 86 C-7.92 89.96 -7.92 89.96 -16 94 C-20.58334282 97.93630918 -20.58334282 97.93630918 -24.9609375 102.09375 C-27 104 -27 104 -29 104 C-29.25652344 104.58652344 -29.51304687 105.17304688 -29.77734375 105.77734375 C-31.11173896 108.20312929 -32.54485328 109.67528701 -34.5625 111.5625 C-38.55564113 115.45527492 -42.03515972 119.61166804 -45.5234375 123.95703125 C-48.24418976 127.30003757 -51.05160714 130.55640672 -53.875 133.8125 C-58.38315249 139.02829019 -62.69362099 144.36420251 -66.91870117 149.81079102 C-70.52501806 154.4426563 -74.27964656 158.92945548 -78.09057617 163.39355469 C-81.40184711 167.27691763 -84.61557498 171.22340954 -87.78515625 175.22265625 C-90.60099915 178.75363386 -93.45813239 182.2501495 -96.3125 185.75 C-100.87998443 191.35662325 -105.38344713 197.00727338 -109.83300781 202.70776367 C-113.35322087 207.2060258 -116.94842557 211.63944592 -120.5625 216.0625 C-125.32229427 221.89272531 -129.96475004 227.79493228 -134.53125 233.77734375 C-143.78400431 245.89173618 -153.3291153 257.78897893 -163.01953125 269.5546875 C-164.73214125 271.66927105 -166.38555441 273.81005804 -168 276 C-171.72527828 274.75824057 -172.25824719 273.52279715 -174.4375 270.3125 C-177.72241129 265.65686287 -181.20118126 261.30042498 -184.9375 257 C-189.31698116 251.95496918 -193.62112097 246.86619694 -197.82421875 241.671875 C-199.37149901 239.77180373 -200.93881761 237.88797418 -202.51953125 236.015625 C-203.33808594 235.04109375 -204.15664063 234.0665625 -205 233.0625 C-206.11375 231.74958984 -206.11375 231.74958984 -207.25 230.41015625 C-208.98512613 228.02048477 -209.6852418 226.88572157 -210 224 C-209.03466797 221.75195312 -209.03466797 221.75195312 -207.4921875 219.28125 C-206.925 218.36037598 -206.3578125 217.43950195 -205.7734375 216.49072266 C-205.14695312 215.50378418 -204.52046875 214.5168457 -203.875 213.5 C-202.90820312 211.94804932 -202.90820312 211.94804932 -201.921875 210.36474609 C-199.9631717 207.23322118 -197.98538275 204.11466439 -196 201 C-195.47567383 200.1740332 -194.95134766 199.34806641 -194.41113281 198.49707031 C-190.6703401 192.6229541 -186.84630205 186.80544294 -183 181 C-182.60151855 180.39851135 -182.20303711 179.79702271 -181.79248047 179.17730713 C-167.78910447 158.04763682 -153.65696862 137.02094119 -139.09228516 116.27294922 C-135.48995834 111.13955806 -131.9176622 105.98721849 -128.375 100.8125 C-123.15962153 93.19978367 -117.84258391 85.66133027 -112.50732422 78.13232422 C-111.02170102 76.03069917 -109.54295115 73.92441707 -108.06640625 71.81640625 C-97.13485709 56.22485227 -85.92918205 40.8460984 -74 26 C-73.45214844 25.29617188 -72.90429688 24.59234375 -72.33984375 23.8671875 C-68.23595435 18.76876223 -63.22992051 14.89567307 -58 11 C-57.09701172 10.28650391 -57.09701172 10.28650391 -56.17578125 9.55859375 C-40.6546865 -1.56776406 -17.03560186 0 0 0 Z " fill="#6DC84D" transform="translate(842,319)"/>
<path d="M0 0 C19.14 0 38.28 0 58 0 C58 38.61 58 77.22 58 117 C38.86 117 19.72 117 0 117 C0 78.39 0 39.78 0 0 Z " fill="#347F31" transform="translate(803,573)"/>
<path d="M0 0 C7.05389 5.45351323 11.97109072 12.77708598 14.1875 21.4375 C15.62095707 35.21004794 14.82801485 47.62058544 6 58.8125 C-2.34892293 67.5047769 -12.93968713 71.50411525 -24.8125 71.8125 C-34.26911846 71.57634123 -41.55048066 69.59442944 -48.8125 63.4375 C-48.8125 62.7775 -48.8125 62.1175 -48.8125 61.4375 C-49.4725 61.4375 -50.1325 61.4375 -50.8125 61.4375 C-50.8125 73.9775 -50.8125 86.5175 -50.8125 99.4375 C-56.4225 99.4375 -62.0325 99.4375 -67.8125 99.4375 C-67.88053041 89.84870055 -67.93546215 80.26006387 -67.96793652 70.67107677 C-67.98352993 66.21755628 -68.00465126 61.76421081 -68.03881836 57.31079102 C-68.07163919 53.00544347 -68.08940046 48.70026328 -68.09713173 44.39480019 C-68.10263476 42.75991498 -68.11337976 41.12503795 -68.12969017 39.49022484 C-68.26850568 24.98740471 -66.97402541 13.54789451 -56.8125 2.4375 C-41.1087809 -11.60106128 -17.15906775 -11.30780243 0 0 Z " fill="#52B745" transform="translate(1031.8125,782.5625)"/>
<path d="M0 0 C16 0 16 0 20.01953125 3.62890625 C21.00739975 5.23991229 21.93696027 6.88778963 22.8125 8.5625 C23.86712654 10.32321367 24.92445381 12.08231229 25.984375 13.83984375 C26.48904297 14.71753418 26.99371094 15.59522461 27.51367188 16.49951172 C29.63011299 20.06005539 32.05843473 23.33114949 34.5625 26.625 C39.13258927 32.76684417 43.55976282 39.00246983 47.94165039 45.27978516 C50.00460535 48.22464895 52.06780131 51.08280559 54.34765625 53.8671875 C56 56 56 56 56 58 C60.21277933 54.21877368 63.18726774 49.63275485 66.375 45 C67.62751695 43.19525197 68.8801237 41.39056625 70.1328125 39.5859375 C70.77250977 38.66135742 71.41220703 37.73677734 72.07128906 36.78417969 C73.93481041 34.09410406 75.80526299 31.4090499 77.6796875 28.7265625 C78.27209229 27.87803711 78.86449707 27.02951172 79.47485352 26.15527344 C80.65403931 24.47447553 81.83939506 22.79798865 83.03100586 21.12597656 C85.70160029 17.36816781 88.26696945 13.62595287 90.57421875 9.6328125 C90.97801758 8.97200684 91.38181641 8.31120117 91.79785156 7.63037109 C92.84930059 5.89552525 93.84723371 4.12854443 94.83984375 2.359375 C98 0 98 0 113 0 C113 34.32 113 68.64 113 104 C107.39 104 101.78 104 96 104 C95.67 80.9 95.34 57.8 95 34 C90.71 39.94 86.42 45.88 82 52 C78.96152727 56.13650589 75.918597 60.26815749 72.84716797 64.38012695 C70.40363217 67.66641382 67.98774131 70.92659708 65.84375 74.41796875 C65.2765625 75.33191406 64.709375 76.24585938 64.125 77.1875 C63.69445312 77.94417969 63.26390625 78.70085937 62.8203125 79.48046875 C60.35276407 81.54028922 58.11017024 81.65557798 54.95751953 81.48803711 C52.24707691 80.8122857 50.96547623 79.27336668 49.453125 76.98828125 C49.09734375 76.39402344 48.7415625 75.79976562 48.375 75.1875 C47.53140609 73.89792969 46.68488402 72.61027166 45.8359375 71.32421875 C45.38573242 70.62731934 44.93552734 69.93041992 44.47167969 69.21240234 C41.80096323 65.19746662 38.88501992 61.36225471 36 57.5 C30.23149183 49.73614421 24.62386565 41.87341191 19 34 C18.67 57.1 18.34 80.2 18 104 C12.06 104 6.12 104 0 104 C0 69.68 0 35.36 0 0 Z " fill="#EBEAEA" transform="translate(216,749)"/>
<path d="M0 0 C7.07909404 5.83925271 12.05042515 13.29806997 13.76171875 22.3984375 C14.81886979 35.57662166 12.95885298 46.7873167 4.76171875 57.3984375 C-3.40871906 65.85010414 -13.37309786 70.50744327 -25.11328125 70.83544922 C-37.02710518 70.83789861 -45.22358949 69.13367034 -55.23828125 62.3984375 C-56.14578125 61.8209375 -57.05328125 61.2434375 -57.98828125 60.6484375 C-65.25016738 53.38655137 -69.54979229 43.39243395 -69.75732422 33.19213867 C-69.75104004 32.35271729 -69.74475586 31.5132959 -69.73828125 30.6484375 C-69.73328613 29.77098877 -69.72829102 28.89354004 -69.72314453 27.98950195 C-69.46943596 18.4946773 -66.75184844 9.98869837 -60.09375 2.98828125 C-42.86704582 -11.77228423 -18.72350441 -13.39727192 0 0 Z " fill="#E9E8E8" transform="translate(417.23828125,783.6015625)"/>
<path d="M0 0 C0.72574219 -0.01224609 1.45148437 -0.02449219 2.19921875 -0.03710938 C13.32859425 -0.06686706 22.36609217 3.90036845 30.5625 11.4375 C40.24832039 22.11026417 38.75 29.26682327 38.75 45.1875 C18.62 45.1875 -1.51 45.1875 -22.25 45.1875 C-18.97779704 53.91337457 -17.29187079 57.57863921 -9.15234375 61.390625 C-0.6657224 64.94559575 8.04712415 63.719733 16.390625 60.34375 C19.19693021 58.9684746 21.50112816 57.35882453 23.75 55.1875 C26.85442031 56.5779499 29.1156443 58.20321598 31.5625 60.5625 C32.50029297 61.44035156 32.50029297 61.44035156 33.45703125 62.3359375 C34.75 64.1875 34.75 64.1875 34.6953125 66.2265625 C31.76138199 72.31264976 22.95291279 75.15836903 17.01171875 77.42578125 C5.31349504 81.36559752 -8.82360403 80.18288125 -19.89453125 74.93359375 C-31.0946614 68.7710034 -36.03603737 60.23880988 -39.86328125 48.26953125 C-41.83546684 37.65160275 -40.47692753 27.25322205 -34.9296875 17.98046875 C-26.33313416 5.69632285 -14.84053124 0.01290481 0 0 Z " fill="#55BB48" transform="translate(908.25,774.8125)"/>
<path d="M0 0 C9.46243185 5.55999444 14.84195536 12.49010516 18.83203125 22.6640625 C19.83203125 26.6640625 19.83203125 26.6640625 19.83203125 41.6640625 C-0.62796875 41.6640625 -21.08796875 41.6640625 -42.16796875 41.6640625 C-38.12205969 50.76735789 -35.6860416 55.2863925 -26.6796875 58.93359375 C-17.8456577 61.50274394 -9.38669774 59.29502337 -1.16796875 55.6640625 C1.95532073 53.64512286 1.95532073 53.64512286 3.83203125 51.6640625 C7.21923025 53.1028727 9.19144165 54.88525749 11.58203125 57.6640625 C12.195625 58.3653125 12.80921875 59.0665625 13.44140625 59.7890625 C14.83203125 61.6640625 14.83203125 61.6640625 14.83203125 63.6640625 C3.85367207 73.70647862 -9.3331971 76.71452035 -23.734375 76.08203125 C-34.45030087 75.27443456 -44.24112232 70.2342452 -51.48046875 62.2890625 C-60.20727068 51.30783674 -60.34718389 38.15340208 -59.16796875 24.6640625 C-57.16047121 15.15917618 -51.61831906 8.66984107 -44.16796875 2.6640625 C-41.58383655 0.98688322 -39.06018524 -0.28836302 -36.16796875 -1.3359375 C-35.29785156 -1.68785156 -34.42773438 -2.03976562 -33.53125 -2.40234375 C-22.97192969 -5.33344428 -9.9089106 -4.55377406 0 0 Z " fill="#EAE9E9" transform="translate(602.16796875,778.3359375)"/>
<path d="M0 0 C16.5 0 33 0 50 0 C50 24.09 50 48.18 50 73 C33.5 73 17 73 0 73 C0 48.91 0 24.82 0 0 Z " fill="#2E752D" transform="translate(747,617)"/>
<path d="M0 0 C1.31049316 0.01135986 1.31049316 0.01135986 2.64746094 0.02294922 C13.38309771 0.29521546 22.22345496 3.0614046 30.1875 10.4375 C30.75339844 10.95054687 31.31929687 11.46359375 31.90234375 11.9921875 C36.02698691 16.20759298 37.36345245 20.48082785 38.64453125 26.1796875 C38.96893964 28.39299682 38.96893964 28.39299682 40.1875 29.4375 C40.28069449 30.9723297 40.304958 32.51142082 40.30102539 34.04907227 C40.30091209 35.52048424 40.30091209 35.52048424 40.30079651 37.0216217 C40.29563522 38.0882756 40.29047394 39.1549295 40.28515625 40.25390625 C40.2837413 41.3400975 40.28232635 42.42628876 40.28086853 43.5453949 C40.27525048 47.03029075 40.26269492 50.51512342 40.25 54 C40.24498733 56.35611887 40.24042402 58.71223874 40.23632812 61.06835938 C40.22527518 66.85809743 40.20799846 72.64778799 40.1875 78.4375 C34.2475 78.4375 28.3075 78.4375 22.1875 78.4375 C22.1781543 77.02533203 22.16880859 75.61316406 22.15917969 74.15820312 C22.11916337 68.89486708 22.05337148 63.63210837 21.97998047 58.36914062 C21.9518384 56.09577884 21.93059039 53.82232045 21.91650391 51.54882812 C21.89498118 48.2716347 21.84828115 44.99559469 21.796875 41.71875 C21.79564636 40.71009888 21.79441772 39.70144775 21.79315186 38.66223145 C21.66667201 32.50205567 20.86843933 27.51967168 17.1875 22.4375 C9.63888705 16.4294203 1.40378624 16.47784741 -7.8125 17.4375 C-12.95005679 19.63089817 -16.52613186 23.32679475 -18.8125 28.4375 C-19.68885553 31.37593249 -19.95895914 34.05337506 -20.01782227 37.11425781 C-20.03776749 38.03491028 -20.05771271 38.95556274 -20.07826233 39.90411377 C-20.10333107 41.38243683 -20.10333107 41.38243683 -20.12890625 42.890625 C-20.14968735 43.90598328 -20.17046844 44.92134155 -20.19187927 45.96746826 C-20.25720597 49.20741073 -20.31618137 52.44743348 -20.375 55.6875 C-20.41820126 57.88542493 -20.46181607 60.08334178 -20.50585938 62.28125 C-20.61287012 67.66658461 -20.71418522 73.0519999 -20.8125 78.4375 C-26.4225 78.4375 -32.0325 78.4375 -37.8125 78.4375 C-37.91184599 71.21504668 -37.98419506 63.99299674 -38.03222656 56.77001953 C-38.05226324 54.31617294 -38.07950032 51.86237363 -38.11425781 49.40869141 C-38.16312498 45.86869597 -38.1855492 42.32933532 -38.203125 38.7890625 C-38.22377014 37.70323883 -38.24441528 36.61741516 -38.26568604 35.49868774 C-38.26840939 26.12116584 -36.11049087 17.9986762 -29.5703125 11.03125 C-20.88752607 3.15885697 -11.63138713 -0.14206619 0 0 Z " fill="#E7E6E6" transform="translate(485.8125,774.5625)"/>
<path d="M0 0 C5.94 0 11.88 0 18 0 C22.22880883 8.31938023 26.1804301 16.70836407 29.9375 25.25 C30.45602539 26.42280518 30.97455078 27.59561035 31.50878906 28.80395508 C33.00946177 32.2010643 34.50582965 35.60002647 36 39 C36.60835693 40.38421143 36.60835693 40.38421143 37.22900391 41.79638672 C39.16002764 46.19440227 41.08431816 50.59528084 43 55 C48.13552536 45.07033874 52.67662738 34.91124733 57.1875 24.6875 C57.9053478 23.06694601 58.62344534 21.44650263 59.34179688 19.82617188 C60.65795312 16.85440309 61.97367921 13.88244943 63.28588867 10.90893555 C63.54536789 10.32113815 63.80484711 9.73334076 64.07218933 9.12773132 C65.39614947 6.09151764 66.69521322 3.04450249 68 0 C73.94 0 79.88 0 86 0 C85.26618446 3.66907768 84.68336067 6.04249174 83.17944336 9.29956055 C82.64249344 10.47015518 82.64249344 10.47015518 82.09469604 11.66439819 C81.73344635 12.43514679 81.37219666 13.20589539 81 14 C80.6821756 14.68236725 80.3643512 15.3647345 80.03689575 16.06777954 C79.0753267 18.11796814 78.10356531 20.16303535 77.12890625 22.20703125 C76.38881006 23.76463676 75.64873947 25.32225443 74.90869141 26.87988281 C74.52594055 27.68445923 74.1431897 28.48903564 73.74884033 29.31799316 C65.73540771 46.16776378 57.81938183 63.05923434 50 80 C49.42859673 81.2370016 48.85714355 82.47398014 48.28564453 83.7109375 C44.85381623 91.13911349 41.42547033 98.56888959 38 106 C32.06 106 26.12 106 20 106 C20.86374921 101.68125393 21.73781801 99.24553052 23.7578125 95.47265625 C24.57185547 93.91321289 24.57185547 93.91321289 25.40234375 92.32226562 C26.55088035 90.14890102 27.70714636 87.97960358 28.87109375 85.81445312 C29.41121094 84.77353516 29.95132813 83.73261719 30.5078125 82.66015625 C31.00941895 81.71793213 31.51102539 80.77570801 32.02783203 79.80493164 C34.01783151 74.06331839 31.50768293 69.48401991 29.0078125 64.2578125 C28.70595535 63.62078903 28.40409821 62.98376556 28.09309387 62.32743835 C27.1103552 60.25673197 26.11761239 58.19098868 25.125 56.125 C24.09644992 53.96266216 23.07061735 51.79904819 22.04484558 49.63539124 C21.35545543 48.18180405 20.66519683 46.72862844 19.97407532 45.27586365 C16.90207012 38.81502939 13.90551547 32.32183182 10.9375 25.8125 C10.06515081 23.89971831 9.19275732 21.98695682 8.3203125 20.07421875 C7.92489258 19.20716309 7.52947266 18.34010742 7.12207031 17.44677734 C6.08943335 15.19501764 5.04488098 12.94947101 3.9921875 10.70703125 C3.43789063 9.52496094 2.88359375 8.34289062 2.3125 7.125 C1.62607422 5.67480469 1.62607422 5.67480469 0.92578125 4.1953125 C0 2 0 2 0 0 Z " fill="#E8E7E7" transform="translate(629,776)"/>
<path d="M0 0 C1.43545166 0.00314209 1.43545166 0.00314209 2.89990234 0.00634766 C12.95166356 0.22709882 21.45689679 2.84518516 30.375 7.5 C28.96207905 12.3274799 26.94525846 16.2162359 24.375 20.5 C21.18366534 19.9852686 18.33430698 19.11860121 15.32421875 17.984375 C10.20915172 16.26588241 5.48730767 16.01808329 0.125 16.0625 C-0.74640625 16.04251953 -1.6178125 16.02253906 -2.515625 16.00195312 C-6.68522619 16.00513117 -9.05769147 16.16948734 -12.72265625 18.3046875 C-14.98892663 20.46586085 -14.98892663 20.46586085 -14.8125 24.0625 C-13.97383288 27.62706914 -13.97383288 27.62706914 -11.1875 29.09375 C-6.66297655 30.8797461 -2.22068561 31.64560997 2.5625 32.4375 C25.39696294 36.53074812 25.39696294 36.53074812 32.25 46.125 C34.4756213 52.80186391 34.35383584 60.24512756 31.45703125 66.7265625 C27.34493915 73.46623692 19.90945576 77.09714122 12.46679688 79.08837891 C-1.76280476 81.88846158 -18.82441693 80.25693187 -31.0625 72.25 C-32.26606463 71.35453018 -33.46100624 70.44633639 -34.625 69.5 C-33.99110765 66.00155614 -32.57322306 63.65913124 -30.5625 60.75 C-30.01464844 59.95078125 -29.46679688 59.1515625 -28.90234375 58.328125 C-28.48082031 57.72484375 -28.05929687 57.1215625 -27.625 56.5 C-23.64719012 58.06171057 -19.77766986 59.79144804 -15.90625 61.59765625 C-10.60578422 63.6942446 -5.31426935 63.74360078 0.3125 63.8125 C1.09818359 63.84150391 1.88386719 63.87050781 2.69335938 63.90039062 C8.02290653 63.95836896 11.25340569 63.21533223 15.375 59.5 C15.87625283 55.83142278 15.87625283 55.83142278 15.375 52.5 C7.11135236 48.46426511 -1.81568071 46.86299127 -10.875 45.625 C-17.91557908 44.49032279 -23.77465273 41.90024634 -28.5625 36.5 C-32.76801631 30.38288537 -33.59985975 24.80631727 -32.625 17.5 C-30.31469786 11.22457465 -25.43550416 6.63656196 -19.625 3.5 C-13.10136067 0.6955232 -7.05865765 -0.0460212 0 0 Z " fill="#54B946" transform="translate(759.625,774.5)"/>
<path d="M0 0 C5.61 0 11.22 0 17 0 C17 6.6 17 13.2 17 20 C25.25 20 33.5 20 42 20 C42 24.95 42 29.9 42 35 C33.75 35 25.5 35 17 35 C17.05113227 40.44558707 17.11417714 45.88835582 17.20751953 51.33300781 C17.23567498 53.18350053 17.25691646 55.03411229 17.27099609 56.88476562 C17.2925012 59.5513988 17.3391886 62.21660884 17.390625 64.8828125 C17.39185364 65.70492218 17.39308228 66.52703186 17.39434814 67.37405396 C17.52855411 72.68519674 18.47245623 75.78659079 22 80 C25.30994713 81.65497356 28.99123 81.10084335 32.625 81.0625 C33.42679688 81.05798828 34.22859375 81.05347656 35.0546875 81.04882812 C37.03649006 81.03703168 39.01825433 81.01909605 41 81 C41.50471197 82.76949612 42.00360685 84.54065223 42.5 86.3125 C42.7784375 87.29863281 43.056875 88.28476562 43.34375 89.30078125 C44 92 44 92 44 95 C35.21651513 98.33098298 25.57138233 99.92238917 16.5 96.6875 C15.345 96.130625 14.19 95.57375 13 95 C11.700625 94.443125 11.700625 94.443125 10.375 93.875 C4.58687341 89.30542637 1.64974329 83.43443562 0.35522461 76.28442383 C-0.46685394 68.68344597 -0.19997404 61.00962013 -0.125 53.375 C-0.11495103 51.58984877 -0.10582857 49.80469206 -0.09765625 48.01953125 C-0.0757925 43.67955069 -0.04136815 39.33983668 0 35 C-4.29 35 -8.58 35 -13 35 C-13 30.05 -13 25.1 -13 20 C-8.71 20 -4.42 20 0 20 C0 13.4 0 6.8 0 0 Z " fill="#5ABE4C" transform="translate(815,756)"/>
<path d="M0 0 C6.27399028 4.66174975 11.4088651 10.66653193 12.9609375 18.45703125 C14.00654583 25.61746299 12.24436065 32.07367037 8.9609375 38.45703125 C4.80846524 44.01764385 -0.73357949 48.06065838 -7.3515625 50.20703125 C-17.06993582 51.11106598 -24.38856718 50.60632567 -32.2265625 44.39453125 C-37.38600195 39.52003125 -40.55666749 34.3161913 -41.4453125 27.20703125 C-41.69129415 18.35169178 -40.40767139 12.12045441 -34.8515625 5.20703125 C-26.13373605 -3.94308411 -11.3915866 -6.17589848 0 0 Z " fill="#6AD356" transform="translate(641.0390625,403.54296875)"/>
<path d="M0 0 C6.36577172 4.54206415 10.32014404 9.23246091 12 17 C12.9498739 24.7346875 11.41952285 30.57563094 7 37 C2.4979486 41.9635373 -1.9367294 44.72240119 -8.70703125 45.3359375 C-17.00817454 45.51886619 -24.1414894 45.57574014 -30.4765625 39.609375 C-36.07420052 33.3897772 -37.46742651 28.13842181 -37.21484375 19.96484375 C-36.66536069 12.38197753 -34.74061353 7.15216795 -29 2 C-20.43725736 -4.10303471 -9.30265095 -5.29449473 0 0 Z " fill="#050507" transform="translate(402,793)"/>
<path d="M0 0 C4.42270051 3.46083388 7.58162226 7.26512299 9.01953125 12.74609375 C9.96623359 20.81985708 10.08352356 28.11054683 5.42578125 35.01953125 C0.46542835 41.10974231 -6.76091881 44.21865001 -14.48046875 45.18359375 C-22.59414683 44.16938399 -29.60821684 42.22984606 -34.98046875 35.74609375 C-39.59310019 28.97086359 -39.82637537 21.72031103 -38.98046875 13.74609375 C-37.6407569 8.00594373 -34.05707541 2.91700272 -29.2421875 -0.48046875 C-19.98012757 -5.99407188 -9.1549208 -5.7963108 0 0 Z " fill="#020504" transform="translate(1019.98046875,794.25390625)"/>
<path d="M0 0 C2.64 0 5.28 0 8 0 C8 2.64 8 5.28 8 8 C9.485 8.0928125 9.485 8.0928125 11 8.1875 C15.71827991 8.82432306 19.1745514 11.30728164 23 14 C21.94124926 17.40312738 20.99097846 20.01353231 19 23 C18.505 22.731875 18.01 22.46375 17.5 22.1875 C14.0763054 20.56124507 10.55867715 19.30484829 7 18 C7.33 22.29 7.66 26.58 8 31 C10.84625 32.0828125 10.84625 32.0828125 13.75 33.1875 C19.26438028 35.28536206 22.33631449 37.67262898 25 43 C25.55319423 48.04222938 25.58090722 51.89827941 23.1875 56.4375 C22.465625 57.283125 21.74375 58.12875 21 59 C20.566875 59.598125 20.13375 60.19625 19.6875 60.8125 C17.0179824 62.69104942 14.19467264 62.66371867 11 63 C9.66082739 63.30903983 8.32346746 63.62942911 7 64 C7.020625 65.134375 7.04125 66.26875 7.0625 67.4375 C7 71 7 71 6 72 C4.33382885 72.04063832 2.66611905 72.042721 1 72 C0.67 69.69 0.34 67.38 0 65 C-1.134375 64.938125 -2.26875 64.87625 -3.4375 64.8125 C-8.45437656 64.17643172 -13.1539819 62.33265464 -17 59 C-17.875 56.50390625 -17.875 56.50390625 -18 54 C-16.0625 51.1875 -16.0625 51.1875 -14 49 C-13.17242188 49.42925781 -13.17242188 49.42925781 -12.328125 49.8671875 C-9.84094711 51.07739151 -7.32252247 52.1095306 -4.75 53.125 C-3.1825 53.74375 -1.615 54.3625 0 55 C0 50.05 0 45.1 0 40 C-1.98 39.67 -3.96 39.34 -6 39 C-11.27638465 36.54375197 -14.47555002 34.45281196 -17 29 C-17.85489829 24.56939669 -17.87797104 20.78300284 -15.859375 16.68359375 C-12.90244512 12.45829658 -9.97779135 9.69456727 -5 8 C-2.125 7.8125 -2.125 7.8125 0 8 C0 5.36 0 2.72 0 0 Z " fill="#53AE42" transform="translate(830,489)"/>
<path d="M0 0 C15.18 0 30.36 0 46 0 C46 10.23 46 20.46 46 31 C33.79 31 21.58 31 9 31 C7.700625 26.813125 6.40125 22.62625 5.0625 18.3125 C4.65394775 17.00063721 4.24539551 15.68877441 3.82446289 14.3371582 C3.5021167 13.29390381 3.17977051 12.25064941 2.84765625 11.17578125 C2.51773682 10.11270752 2.18781738 9.04963379 1.84790039 7.9543457 C1.09698164 5.33791385 0.53383931 2.66919654 0 0 Z " fill="#2A6D2B" transform="translate(695,659)"/>
<path d="M0 0 C3.86908375 2.3630533 7.32131841 5.43445528 9.5 9.4375 C9.995 12.9025 9.995 12.9025 10.5 16.4375 C-4.35 16.4375 -19.2 16.4375 -34.5 16.4375 C-33.59367026 10.0931918 -33.16015092 7.36410864 -28.5 3.4375 C-20.30354894 -2.46146099 -9.43173934 -4.15574722 0 0 Z " fill="#050C07" transform="translate(920.5,791.5625)"/>
<path d="M0 0 C6.04653513 2.46151177 9.15444771 5.92360731 12.5625 11.44140625 C13.25 13.31640625 13.25 13.31640625 13.25 17.31640625 C-1.6 17.31640625 -16.45 17.31640625 -31.75 17.31640625 C-30.73983266 11.25540224 -29.82581917 7.58215819 -24.77734375 3.86328125 C-16.86788156 -1.13216856 -9.34227018 -2.32229727 0 0 Z " fill="#0E0F10" transform="translate(591.75,790.68359375)"/>
<path d="M0 0 C2.8100346 1.79363911 4.50940468 3.01880935 6 6 C6.59873168 11.26883876 5.25400021 13.8846468 2 18 C-1.50317094 19.75158547 -5.18694726 19.6837198 -9 19 C-12.63715985 15.95666217 -13.82298645 14.12108584 -14.5625 9.4375 C-13.91429589 5.47625263 -12.81200626 3.81200626 -10 1 C-6.79826746 -0.60086627 -3.47422941 -0.49917089 0 0 Z " fill="#5CBE54" transform="translate(801,906)"/>
<path d="M0 0 C11.16564417 -0.49079755 11.16564417 -0.49079755 15.1875 1.875 C17.99663249 5.16846567 18.43576704 7.58842633 18.31640625 11.95703125 C18 14 18 14 16.3125 17 C11.00290663 20.20579222 6.12116246 19.30914962 0 19 C0 12.73 0 6.46 0 0 Z " fill="#60C15A" transform="translate(719,906)"/>
<path d="M0 0 C55.27272727 0 55.27272727 0 66.25 7 C67.89742187 8.0209375 67.89742187 8.0209375 69.578125 9.0625 C70.37734375 9.701875 71.1765625 10.34125 72 11 C72 11.99 72 12.98 72 14 C69.53199953 12.84826645 67.95216435 11.95216435 66 10 C65.01 9.67 64.02 9.34 63 9 C63 8.34 63 7.68 63 7 C62.35933594 6.87882812 61.71867187 6.75765625 61.05859375 6.6328125 C55.951954 5.64344861 50.99424095 4.4688944 46 3 C42.67693791 2.07126957 42.67693791 2.07126957 39.35839844 2.47436523 C35.90577208 3.24387916 32.47153649 3.12203351 28.953125 3.09765625 C28.18192322 3.0962413 27.41072144 3.09482635 26.6161499 3.09336853 C24.16072662 3.08778534 21.70539558 3.07523595 19.25 3.0625 C17.58203257 3.05748283 15.91406371 3.0529203 14.24609375 3.04882812 C10.16402713 3.03782141 6.08202919 3.02056836 2 3 C2.00222061 3.5927623 2.00444122 4.1855246 2.00672913 4.79624939 C2.12928217 39.21278629 1.87504406 73.59401225 1 108 C0.67 108 0.34 108 0 108 C0 72.36 0 36.72 0 0 Z " fill="#B0F56E" transform="translate(414,320)"/>
<path d="M0 0 C0.33 0 0.66 0 1 0 C1.02505615 0.57967529 1.0501123 1.15935059 1.07592773 1.7565918 C1.19246234 4.40042107 1.31492682 7.04394409 1.4375 9.6875 C1.47681641 10.59951172 1.51613281 11.51152344 1.55664062 12.45117188 C1.59853516 13.33740234 1.64042969 14.22363281 1.68359375 15.13671875 C1.73858032 16.35427856 1.73858032 16.35427856 1.79467773 17.59643555 C1.949526 20.00560424 1.949526 20.00560424 2.50474548 22.34707642 C2.98493512 24.91930215 3.12685322 27.23805085 3.12939453 29.8503418 C3.13412277 31.25155525 3.13412277 31.25155525 3.13894653 32.68107605 C3.1369223 33.67706314 3.13489807 34.67305023 3.1328125 35.69921875 C3.13376923 36.73061478 3.13472595 37.7620108 3.13571167 38.82466125 C3.13639086 40.99907492 3.13455482 43.17349064 3.13037109 45.34790039 C3.12500281 48.68575552 3.13033334 52.02347708 3.13671875 55.36132812 C3.13605824 57.47395863 3.13477765 59.58658905 3.1328125 61.69921875 C3.13483673 62.70127853 3.13686096 63.70333832 3.13894653 64.73576355 C3.13579437 65.66044937 3.13264221 66.58513519 3.12939453 67.5378418 C3.12859894 68.3532695 3.12780334 69.1686972 3.12698364 70.00883484 C3 72 3 72 2 74 C7.94 73.505 7.94 73.505 14 73 C14.33 60.79 14.66 48.58 15 36 C15.99 36.33 16.98 36.66 18 37 C17.67 49.54 17.34 62.08 17 75 C11.39 75 5.78 75 0 75 C0 50.25 0 25.5 0 0 Z " fill="#318C2B" transform="translate(964,807)"/>
<path d="M0 0 C0.33 0 0.66 0 1 0 C1.01030746 1.09358826 1.02061493 2.18717651 1.03123474 3.31390381 C1.12894107 13.61401485 1.23167261 23.91406511 1.33933926 34.214077 C1.39453132 39.50955888 1.44794545 44.80504631 1.49731445 50.10058594 C1.54501273 55.20993104 1.59735762 60.31920923 1.65294075 65.42847443 C1.67333952 67.37891222 1.69205668 69.32936834 1.70907402 71.27983856 C1.73317281 74.00921763 1.76322 76.73847066 1.79467773 79.46777344 C1.8004332 80.27625732 1.80618866 81.08474121 1.81211853 81.91772461 C1.85918361 85.50425767 2.12395877 88.49583509 3 92 C2.67 99.59 2.34 107.18 2 115 C20.48 115 38.96 115 58 115 C58 115.66 58 116.32 58 117 C38.86 117 19.72 117 0 117 C0 78.39 0 39.78 0 0 Z " fill="#1C4F21" transform="translate(803,573)"/>
<path d="M0 0 C10.33136816 -0.36897743 10.33136816 -0.36897743 13.3359375 1.2890625 C15 3 15 3 15.375 6.5625 C15 10 15 10 13 12 C13.26676204 13.98491642 13.26676204 13.98491642 14 16 C14.33 16.99 14.66 17.98 15 19 C13.125 18.6875 13.125 18.6875 11 18 C10.34 17.01 9.68 16.02 9 15 C5.93443402 14.26656572 5.93443402 14.26656572 3 14 C3 15.65 3 17.3 3 19 C2.01 19 1.02 19 0 19 C0 12.73 0 6.46 0 0 Z " fill="#54AF4E" transform="translate(692,906)"/>
<path d="M0 0 C11.46740947 -0.36991643 11.46740947 -0.36991643 13.8671875 1.296875 C15.75297707 4.13206208 15.28930657 6.70190508 15 10 C14.62875 10.70125 14.2575 11.4025 13.875 12.125 C12.69204203 14.10723196 12.69204203 14.10723196 13.875 16.75 C14.24625 17.4925 14.6175 18.235 15 19 C13.125 18.8125 13.125 18.8125 11 18 C9.75 15.4375 9.75 15.4375 9 13 C7.02 13 5.04 13 3 13 C3 14.98 3 16.96 3 19 C2.01 19 1.02 19 0 19 C0 12.73 0 6.46 0 0 Z " fill="#70D561" transform="translate(489,906)"/>
<path d="M0 0 C11.46325521 -0.36978243 11.46325521 -0.36978243 13.87109375 1.2890625 C15.71919677 4.08999372 15.23632436 6.75054011 15 10 C14.67 10.66 14.34 11.32 14 12 C13.34 12 12.68 12 12 12 C12.99 14.31 13.98 16.62 15 19 C13.125 18.8125 13.125 18.8125 11 18 C9.75 15.4375 9.75 15.4375 9 13 C7.02 13 5.04 13 3 13 C3 14.98 3 16.96 3 19 C2.01 19 1.02 19 0 19 C0 12.73 0 6.46 0 0 Z " fill="#55A649" transform="translate(847,906)"/>
<path d="M0 0 C10.33515262 -0.36911259 10.33515262 -0.36911259 13.3359375 1.296875 C15 3 15 3 15.375 6.4375 C15 10 15 10 13.875 12.125 C12.69204203 14.10723196 12.69204203 14.10723196 13.875 16.75 C14.24625 17.4925 14.6175 18.235 15 19 C14.01 19 13.02 19 12 19 C11.566875 18.195625 11.13375 17.39125 10.6875 16.5625 C9.1940019 13.66843898 9.1940019 13.66843898 5.8125 13.1875 C4.884375 13.125625 3.95625 13.06375 3 13 C3 14.98 3 16.96 3 19 C2.01 19 1.02 19 0 19 C0 12.73 0 6.46 0 0 Z " fill="#62C558" transform="translate(575,906)"/>
<path d="M0 0 C1.29550781 0.00322266 2.59101562 0.00644531 3.92578125 0.00976562 C5.28906317 0.01812027 6.65234442 0.02658521 8.015625 0.03515625 C9.39452965 0.04017457 10.77343604 0.0447369 12.15234375 0.04882812 C15.52348159 0.06061532 18.89453128 0.0770699 22.265625 0.09765625 C22.28885488 8.06055361 22.30659418 16.02343667 22.31743717 23.9863596 C22.32264278 27.68435938 22.32969801 31.38233588 22.34106445 35.08032227 C22.35197617 38.65296086 22.35791931 42.22557714 22.36050224 45.79823112 C22.36234161 47.15729053 22.36593332 48.5163488 22.37135506 49.87539864 C22.3786755 51.78744426 22.37903399 53.69951263 22.37915039 55.61157227 C22.381371 56.69745132 22.38359161 57.78333038 22.38587952 58.90211487 C22.25588946 62.35636025 21.80902506 65.68600957 21.265625 69.09765625 C20.935625 69.09765625 20.605625 69.09765625 20.265625 69.09765625 C20.265625 47.64765625 20.265625 26.19765625 20.265625 4.09765625 C12.345625 4.09765625 4.425625 4.09765625 -3.734375 4.09765625 C-4.724375 3.76765625 -5.714375 3.43765625 -6.734375 3.09765625 C-8.40258823 3.42316127 -10.06937057 3.75611688 -11.734375 4.09765625 C-12.394375 3.76765625 -13.054375 3.43765625 -13.734375 3.09765625 C-14.064375 3.75765625 -14.394375 4.41765625 -14.734375 5.09765625 C-18.62139355 7.04116552 -22.44530778 7.59306011 -26.734375 8.09765625 C-24.11804118 4.83887747 -21.23707274 4.1086497 -17.296875 2.97265625 C-15.59724609 2.47378906 -15.59724609 2.47378906 -13.86328125 1.96484375 C-12.83074219 1.67867188 -11.79820312 1.3925 -10.734375 1.09765625 C-10.14873779 0.91678467 -9.56310059 0.73591309 -8.9597168 0.54956055 C-5.94577173 -0.06248688 -3.07462878 -0.01348521 0 0 Z " fill="#8BCC57" transform="translate(819.734375,318.90234375)"/>
<path d="M0 0 C0.99 0 1.98 0 3 0 C4.32 3.96 5.64 7.92 7 12 C7.45375 10.7625 7.9075 9.525 8.375 8.25 C9.4384007 5.40754505 10.55192483 2.67336954 12 0 C12.99 0 13.98 0 15 0 C16.32 3.63 17.64 7.26 19 11 C21.22825644 8.77174356 21.69239369 7.34238372 22.625 4.375 C22.88539063 3.55773437 23.14578125 2.74046875 23.4140625 1.8984375 C23.60742188 1.27195312 23.80078125 0.64546875 24 0 C24.99 0 25.98 0 27 0 C25.3186083 6.48707154 23.46937673 12.7677635 21 19 C19.68 18.67 18.36 18.34 17 18 C16.01 14.37 15.02 10.74 14 7 C12.20931427 9.6860286 11.33944209 11.6626589 10.375 14.6875 C10.11460937 15.49574219 9.85421875 16.30398438 9.5859375 17.13671875 C9.29589844 18.05904297 9.29589844 18.05904297 9 19 C7.68 19 6.36 19 5 19 C2.48590969 12.63876684 0.51621228 6.83981276 0 0 Z " fill="#5CBB54" transform="translate(627,906)"/>
<path d="M0 0 C1.32 0 2.64 0 4 0 C4.50286934 1.9575985 5.0022099 3.91610377 5.5 5.875 C5.91765625 7.51082031 5.91765625 7.51082031 6.34375 9.1796875 C7 12 7 12 7 14 C7.66 14 8.32 14 9 14 C9.12117188 13.32453125 9.24234375 12.6490625 9.3671875 11.953125 C9.53476562 11.06109375 9.70234375 10.1690625 9.875 9.25 C10.03742188 8.36828125 10.19984375 7.4865625 10.3671875 6.578125 C10.96796264 4.13052256 11.77997117 2.19400143 13 0 C13.99 0 14.98 0 16 0 C17.32 3.63 18.64 7.26 20 11 C21.66832577 8.49751135 22.62381674 6.58850813 23.625 3.8125 C23.88539063 3.09707031 24.14578125 2.38164063 24.4140625 1.64453125 C24.60742188 1.10183594 24.80078125 0.55914063 25 0 C25.99 0 26.98 0 28 0 C26.12275039 6.37732315 24.14328358 12.70695459 22 19 C20.68 19 19.36 19 18 19 C17.49487756 17.39743892 16.99608373 15.79288208 16.5 14.1875 C16.2215625 13.29417969 15.943125 12.40085937 15.65625 11.48046875 C15 9 15 9 15 6 C14.34 6 13.68 6 13 6 C12.86722656 6.77085937 12.73445313 7.54171875 12.59765625 8.3359375 C12.42105469 9.33882812 12.24445313 10.34171875 12.0625 11.375 C11.88847656 12.37273438 11.71445312 13.37046875 11.53515625 14.3984375 C11 17 11 17 10 19 C8.68 19 7.36 19 6 19 C4.99619084 16.20964954 3.9968055 13.41785145 3 10.625 C2.57074219 9.43390625 2.57074219 9.43390625 2.1328125 8.21875 C1.86210937 7.45820312 1.59140625 6.69765625 1.3125 5.9140625 C1.06113281 5.2123291 0.80976563 4.5105957 0.55078125 3.78759766 C0 2 0 2 0 0 Z " fill="#64C658" transform="translate(290,906)"/>
<path d="M0 0 C0.598125 0.20625 1.19625 0.4125 1.8125 0.625 C-2.10171121 4.11375347 -6.00725294 7.21963937 -10.375 10.125 C-14.41442831 12.90704236 -16.6441031 15.38600516 -19.1875 19.625 C-20.41603571 21.03976171 -21.66882823 22.43361544 -22.9375 23.8125 C-27.44659201 28.79755172 -31.30476054 34.14661418 -35.1875 39.625 C-37.84072346 43.3015343 -40.50977538 46.96627719 -43.1875 50.625 C-43.58179199 51.16431152 -43.97608398 51.70362305 -44.38232422 52.25927734 C-45.60434884 53.92637518 -46.83253014 55.58875814 -48.0625 57.25 C-49.17238281 58.75433594 -49.17238281 58.75433594 -50.3046875 60.2890625 C-52.1875 62.625 -52.1875 62.625 -54.1875 63.625 C-53.59190339 60.70518225 -52.74845621 58.6794447 -51.02734375 56.25390625 C-50.34357666 55.28457153 -50.34357666 55.28457153 -49.64599609 54.2956543 C-49.14406738 53.59996338 -48.64213867 52.90427246 -48.125 52.1875 C-47.33730225 51.08498901 -47.33730225 51.08498901 -46.53369141 49.96020508 C-39.62513268 40.35964931 -32.45346555 30.95685629 -25.1875 21.625 C-24.43243164 20.65046875 -24.43243164 20.65046875 -23.66210938 19.65625 C-7.34526618 -1.25918849 -7.34526618 -1.25918849 0 0 Z " fill="#83DB5C" transform="translate(789.1875,328.375)"/>
<path d="M0 0 C0.66 0 1.32 0 2 0 C2 23.43 2 46.86 2 71 C3.29545448 69.92970871 3.29545448 69.92970871 3.11352539 67.40795898 C3.10828857 66.28204346 3.10305176 65.15612793 3.09765625 63.99609375 C3.09443359 62.78115234 3.09121094 61.56621094 3.08789062 60.31445312 C3.07532227 58.39536133 3.07532227 58.39536133 3.0625 56.4375 C3.05798828 55.15423828 3.05347656 53.87097656 3.04882812 52.54882812 C3.03699545 49.36583978 3.02051068 46.18294238 3 43 C3.33 43 3.66 43 4 43 C4 51.58 4 60.16 4 69 C7.63 69 11.26 69 15 69 C15 65.37 15 61.74 15 58 C15.33 58 15.66 58 16 58 C16.33 48.76 16.66 39.52 17 30 C17.33 30 17.66 30 18 30 C18 43.86 18 57.72 18 72 C12.39 72 6.78 72 1 72 C0.67 48.24 0.34 24.48 0 0 Z " fill="#C9C9C9" transform="translate(311,781)"/>
<path d="M0 0 C1.87988281 0.27954102 1.87988281 0.27954102 4 1 C5.09667969 2.55053711 5.09667969 2.55053711 5.921875 4.52734375 C6.22480469 5.23697266 6.52773438 5.94660156 6.83984375 6.67773438 C7.14019531 7.42345703 7.44054687 8.16917969 7.75 8.9375 C8.06582031 9.67935547 8.38164062 10.42121094 8.70703125 11.18554688 C11 16.65988569 11 16.65988569 11 19 C10.01 19 9.02 19 8 19 C7.67 17.68 7.34 16.36 7 15 C3.37 15 -0.26 15 -4 15 C-4.33 16.32 -4.66 17.64 -5 19 C-5.99 19 -6.98 19 -8 19 C-6.00386732 12.2813095 -3.2708579 6.19265192 0 0 Z " fill="#4B9D48" transform="translate(334,906)"/>
<path d="M0 0 C1.87988281 0.27954102 1.87988281 0.27954102 4 1 C5.09667969 2.55053711 5.09667969 2.55053711 5.921875 4.52734375 C6.22480469 5.23697266 6.52773438 5.94660156 6.83984375 6.67773438 C7.14019531 7.42345703 7.44054687 8.16917969 7.75 8.9375 C8.06582031 9.67935547 8.38164063 10.42121094 8.70703125 11.18554688 C11 16.65988569 11 16.65988569 11 19 C9.68 18.67 8.36 18.34 7 18 C7 17.01 7 16.02 7 15 C3.37 15 -0.26 15 -4 15 C-4.33 16.32 -4.66 17.64 -5 19 C-5.99 19 -6.98 19 -8 19 C-6.00386732 12.2813095 -3.2708579 6.19265192 0 0 Z " fill="#56B54F" transform="translate(670,906)"/>
<path d="M0 0 C1.87988281 0.29541016 1.87988281 0.29541016 4 1 C5.4500783 3.46984881 6.62021639 5.76631509 7.75 8.375 C8.06582031 9.06078125 8.38164062 9.7465625 8.70703125 10.453125 C10.05486384 13.45219839 11 15.67828502 11 19 C10.01 19 9.02 19 8 19 C7.67 18.01 7.34 17.02 7 16 C3.37 15.67 -0.26 15.34 -4 15 C-4.33 16.32 -4.66 17.64 -5 19 C-5.99 19 -6.98 19 -8 19 C-6.60121198 14.53202662 -4.86369228 10.36177921 -2.875 6.125 C-2.33617187 4.97257813 -1.79734375 3.82015625 -1.2421875 2.6328125 C-0.62730469 1.32957031 -0.62730469 1.32957031 0 0 Z " fill="#59BA52" transform="translate(467,906)"/>
<path d="M0 0 C4.62 0 9.24 0 14 0 C14 0.99 14 1.98 14 3 C10.7 3 7.4 3 4 3 C4 4.65 4 6.3 4 8 C6.97 8 9.94 8 13 8 C13 8.99 13 9.98 13 11 C10.03 11 7.06 11 4 11 C4 12.65 4 14.3 4 16 C7.3 16 10.6 16 14 16 C14 16.99 14 17.98 14 19 C9.38 19 4.76 19 0 19 C0 12.73 0 6.46 0 0 Z " fill="#52A94A" transform="translate(435,906)"/>
<path d="M0 0 C4.88147688 1.22036922 5.46258112 2.52074263 8.25 6.5625 C8.95640625 7.57441406 9.6628125 8.58632813 10.390625 9.62890625 C10.92171875 10.41136719 11.4528125 11.19382812 12 12 C12.33 8.04 12.66 4.08 13 0 C13.99 0 14.98 0 16 0 C16 6.27 16 12.54 16 19 C11.2941188 17.8235297 10.60492246 16.69648124 7.75 12.9375 C6.69039062 11.55884766 6.69039062 11.55884766 5.609375 10.15234375 C5.07828125 9.44207031 4.5471875 8.73179687 4 8 C3.67 11.63 3.34 15.26 3 19 C2.01 19 1.02 19 0 19 C0 12.73 0 6.46 0 0 Z " fill="#62BF5B" transform="translate(517,906)"/>
<path d="M0 0 C4.29 0 8.58 0 13 0 C13 0.99 13 1.98 13 3 C9.7 3 6.4 3 3 3 C3 4.65 3 6.3 3 8 C5.97 8 8.94 8 12 8 C12 8.99 12 9.98 12 11 C9.03 11 6.06 11 3 11 C3 12.65 3 14.3 3 16 C6.63 16 10.26 16 14 16 C14 17.32 14 18.64 14 20 C9.38 20 4.76 20 0 20 C0 13.4 0 6.8 0 0 Z " fill="#408F3B" transform="translate(900,906)"/>
<path d="M0 0 C3.625 0.375 3.625 0.375 6.125 1.9375 C7.625 4.375 7.625 4.375 7.5 8 C6.625 11.375 6.625 11.375 4.625 13.375 C-2.48159898 14.05181895 -2.48159898 14.05181895 -5.4375 11.8125 C-6.76774773 8.3538559 -6.23107025 5.9309841 -5.375 2.375 C-3.375 0.375 -3.375 0.375 0 0 Z " fill="#070F08" transform="translate(796.375,908.625)"/>
<path d="M0 0 C4.62 0 9.24 0 14 0 C14 0.99 14 1.98 14 3 C10.37 3 6.74 3 3 3 C3 4.65 3 6.3 3 8 C5.97 8 8.94 8 12 8 C12 8.99 12 9.98 12 11 C9.03 11 6.06 11 3 11 C3 12.65 3 14.3 3 16 C6.63 16 10.26 16 14 16 C14 16.99 14 17.98 14 19 C9.38 19 4.76 19 0 19 C0 12.73 0 6.46 0 0 Z " fill="#4DA447" transform="translate(603,906)"/>
<path d="M0 0 C18.81 0 37.62 0 57 0 C57 1.65 57 3.3 57 5 C56.34 4.01 55.68 3.02 55 2 C51.54171978 1.83330682 51.54171978 1.83330682 48 2 C47.01 1.67 46.02 1.34 45 1 C44.67 1.66 44.34 2.32 44 3 C43.18450684 2.83701416 42.36901367 2.67402832 41.52880859 2.50610352 C37.51165941 1.92996195 33.58582374 1.87473395 29.5390625 1.90234375 C28.3532106 1.90446617 28.3532106 1.90446617 27.1434021 1.90663147 C24.63722834 1.91219496 22.13114642 1.92474056 19.625 1.9375 C17.91797005 1.94251972 16.21093868 1.9470818 14.50390625 1.95117188 C10.33590252 1.96215241 6.16796679 1.97939161 2 2 C2.01160156 3.07378906 2.02320313 4.14757812 2.03515625 5.25390625 C2.04454315 6.69010241 2.05364238 8.12630048 2.0625 9.5625 C2.07087891 10.26697266 2.07925781 10.97144531 2.08789062 11.69726562 C2.10882603 16.24024798 1.74800682 20.51784892 1 25 C0.67 25 0.34 25 0 25 C0 16.75 0 8.5 0 0 Z " fill="#66CD4E" transform="translate(804,573)"/>
<path d="M0 0 C0.70125 0.01417969 1.4025 0.02835938 2.125 0.04296875 C3.176875 0.05263672 3.176875 0.05263672 4.25 0.0625 C6.125 0.23046875 6.125 0.23046875 8.125 1.23046875 C8.125 2.22046875 8.125 3.21046875 8.125 4.23046875 C5.155 4.23046875 2.185 4.23046875 -0.875 4.23046875 C-0.875 4.89046875 -0.875 5.55046875 -0.875 6.23046875 C0.7646875 6.88015625 0.7646875 6.88015625 2.4375 7.54296875 C7.63534336 9.8097767 7.63534336 9.8097767 9.125 12.23046875 C8.88046876 15.57239567 8.51956443 16.83590432 6.125 19.23046875 C4.06640625 19.49609375 4.06640625 19.49609375 1.6875 19.48046875 C0.51380859 19.48820313 0.51380859 19.48820313 -0.68359375 19.49609375 C-2.875 19.23046875 -2.875 19.23046875 -5.875 17.23046875 C-5.875 16.57046875 -5.875 15.91046875 -5.875 15.23046875 C-2.245 15.56046875 1.385 15.89046875 5.125 16.23046875 C4.795 14.91046875 4.465 13.59046875 4.125 12.23046875 C3.01125 11.96234375 1.8975 11.69421875 0.75 11.41796875 C-2.875 10.23046875 -2.875 10.23046875 -4.875 7.23046875 C-4.52619308 3.65519783 -4.11346115 0.50561293 0 0 Z " fill="#57B251" transform="translate(878.875,905.76953125)"/>
<path d="M0 0 C0.99 0 1.98 0 3 0 C3.33 2.97 3.66 5.94 4 9 C4.54269531 8.3503125 5.08539063 7.700625 5.64453125 7.03125 C6.71767578 5.77828125 6.71767578 5.77828125 7.8125 4.5 C8.52019531 3.6646875 9.22789062 2.829375 9.95703125 1.96875 C12 0 12 0 15 0 C15 0.66 15 1.32 15 2 C13.7315625 3.1446875 13.7315625 3.1446875 12.4375 4.3125 C9.73510256 6.70421303 9.73510256 6.70421303 9.9375 9.5 C11.19261687 12.45321616 12.94734921 14.55006196 15 17 C15 17.66 15 18.32 15 19 C13.25 18.875 13.25 18.875 11 18 C9.61061923 16.03852126 8.2739589 14.03833424 7 12 C6.34 11.67 5.68 11.34 5 11 C4.34 13.64 3.68 16.28 3 19 C2.01 19 1.02 19 0 19 C0 12.73 0 6.46 0 0 Z " fill="#59BA52" transform="translate(379,906)"/>
<path d="M0 0 C7.35678392 -0.36180905 7.35678392 -0.36180905 10 1.125 C11.48549091 3.91029546 11.38050713 5.89252511 11 9 C10 11.375 10 11.375 8 13 C5.24528656 13.33686831 2.7936844 13.18319242 0 13 C0 8.71 0 4.42 0 0 Z " fill="#060C06" transform="translate(723,909)"/>
<path d="M0 0 C5.07431137 3.77320589 8.76192233 8.23365291 12.703125 13.16015625 C15.99727414 17.23302432 19.49833946 21.10603724 23 25 C28.91284598 31.67670646 34.72293185 38.44652867 40.48876953 45.25048828 C41.55178979 46.48111884 42.63850054 47.69148517 43.74169922 48.88623047 C44.57918701 49.80686279 44.57918701 49.80686279 45.43359375 50.74609375 C45.94849365 51.29837646 46.46339355 51.85065918 46.99389648 52.41967773 C47.49191772 53.20193726 47.49191772 53.20193726 48 54 C47.67 54.99 47.34 55.98 47 57 C46.4225 56.2575 45.845 55.515 45.25 54.75 C43.13889061 52.07670078 43.13889061 52.07670078 41.125 50.125 C35.91132707 44.91132707 31.43378783 39.05895454 26.9296875 33.234375 C25.09362228 31.10840475 23.25280601 29.65047683 21 28 C19.96986723 26.35178756 18.96885372 24.68496298 18 23 C16.62514468 21.45833358 16.62514468 21.45833358 15 20 C10.11627907 15.34883721 10.11627907 15.34883721 9 12 C8.360625 11.525625 7.72125 11.05125 7.0625 10.5625 C4.79588439 8.84536696 4.21493624 7.51086824 3 5 C2.01 4.34 1.02 3.68 0 3 C0 2.01 0 1.02 0 0 Z " fill="#83DD56" transform="translate(508,355)"/>
<path d="M0 0 C5.61 0 11.22 0 17 0 C16.67 1.32 16.34 2.64 16 4 C16 3.34 16 2.68 16 2 C10.06 2.495 10.06 2.495 4 3 C3.86722656 4.28777344 3.73445312 5.57554687 3.59765625 6.90234375 C3.41950101 8.58075362 3.24110308 10.25913773 3.0625 11.9375 C2.93198242 13.21270508 2.93198242 13.21270508 2.79882812 14.51367188 C2.66831055 15.72700195 2.66831055 15.72700195 2.53515625 16.96484375 C2.456604 17.7137085 2.37805176 18.46257324 2.29711914 19.23413086 C2 21 2 21 1 22 C-1.01594582 22.23427778 -3.038474 22.41336124 -5.0625 22.5625 C-6.71958984 22.68818359 -6.71958984 22.68818359 -8.41015625 22.81640625 C-9.26480469 22.87699219 -10.11945312 22.93757812 -11 23 C-10.979375 24.11375 -10.95875 25.2275 -10.9375 26.375 C-11 30 -11 30 -12 32 C-11.01 32.33 -10.02 32.66 -9 33 C-10.98 33.495 -10.98 33.495 -13 34 C-13 29.38 -13 24.76 -13 20 C-8.71 20 -4.42 20 0 20 C0 13.4 0 6.8 0 0 Z " fill="#6BCB5A" transform="translate(815,756)"/>
<path d="M0 0 C0.99 0.66 1.98 1.32 3 2 C-0.95170683 18.80473308 -11.07919529 31.60171273 -21.984375 44.5859375 C-23.90767387 46.88942336 -25.74258801 49.23943969 -27.5625 51.625 C-31.1521438 56.28479583 -35.04226925 60.65163609 -39 65 C-39 60.85262185 -36.7521488 59.07047232 -34.125 56.125 C-33.10326118 54.94722398 -32.08377969 53.76748642 -31.06640625 52.5859375 C-30.54965332 51.98620117 -30.03290039 51.38646484 -29.50048828 50.76855469 C-25.46081092 46.00717773 -21.71751081 41.01428575 -18 36 C-17.49227051 35.31824707 -16.98454102 34.63649414 -16.46142578 33.93408203 C-8.34319877 22.96649243 -2.62032106 13.53832548 0 0 Z " fill="#195523" transform="translate(552,610)"/>
<path d="M0 0 C0.99 0 1.98 0 3 0 C3.06058594 0.99902344 3.12117187 1.99804688 3.18359375 3.02734375 C3.26738281 4.31769531 3.35117187 5.60804688 3.4375 6.9375 C3.51871094 8.22527344 3.59992187 9.51304687 3.68359375 10.83984375 C3.64919188 13.86023957 3.64919188 13.86023957 5 15 C7.33297433 15.04092937 9.66705225 15.04241723 12 15 C13.41634833 12.16730334 13.3463005 9.52533562 13.5625 6.375 C13.64628906 5.18648437 13.73007812 3.99796875 13.81640625 2.7734375 C13.87699219 1.85820313 13.93757812 0.94296875 14 0 C14.66 0 15.32 0 16 0 C16.08117951 2.41734542 16.14056926 4.83194949 16.1875 7.25 C16.21263672 7.93191406 16.23777344 8.61382813 16.26367188 9.31640625 C16.30873098 12.41046497 16.16855736 14.66555232 14.765625 17.44921875 C12.5758881 19.37250537 11.45399483 19.56737605 8.5625 19.5625 C7.80066406 19.58441406 7.03882813 19.60632813 6.25390625 19.62890625 C2.81089649 18.66820509 1.79721398 17.0345735 0 14 C-0.390625 10.44921875 -0.390625 10.44921875 -0.25 6.6875 C-0.21390625 5.43324219 -0.1778125 4.17898438 -0.140625 2.88671875 C-0.07101562 1.45779297 -0.07101562 1.45779297 0 0 Z " fill="#64B95A" transform="translate(818,906)"/>
<path d="M0 0 C4.29 0 8.58 0 13 0 C13 0.99 13 1.98 13 3 C9.7 3 6.4 3 3 3 C3 4.98 3 6.96 3 9 C5.97 9 8.94 9 12 9 C12 9.66 12 10.32 12 11 C9.03 11 6.06 11 3 11 C3 13.64 3 16.28 3 19 C2.01 19 1.02 19 0 19 C0 12.73 0 6.46 0 0 Z " fill="#54B44D" transform="translate(948,906)"/>
<path d="M0 0 C1.48239733 0.02012671 2.96482151 0.03836642 4.44726562 0.0546875 C8.02791554 0.09812369 11.60752675 0.1667969 15.1875 0.25 C14.8575 1.24 14.5275 2.23 14.1875 3.25 C10.25001542 3.27898816 6.31255821 3.29679464 2.375 3.3125 C1.25544922 3.32087891 0.13589844 3.32925781 -1.01757812 3.33789062 C-2.62729492 3.34272461 -2.62729492 3.34272461 -4.26953125 3.34765625 C-5.7541687 3.35551147 -5.7541687 3.35551147 -7.26879883 3.36352539 C-9.8125 3.25 -9.8125 3.25 -12.8125 2.25 C-14.48071323 2.57550502 -16.14749557 2.90846063 -17.8125 3.25 C-18.4725 2.92 -19.1325 2.59 -19.8125 2.25 C-20.1425 2.91 -20.4725 3.57 -20.8125 4.25 C-24.69951855 6.19350927 -28.52343278 6.74540386 -32.8125 7.25 C-25.38172801 -1.58283426 -10.47617589 -0.25103982 0 0 Z " fill="#C0F574" transform="translate(825.8125,319.75)"/>
<path d="M0 0 C1.95803507 -0.05389087 3.91648909 -0.09274217 5.875 -0.125 C7.51082031 -0.15980469 7.51082031 -0.15980469 9.1796875 -0.1953125 C12 0 12 0 14 2 C14.33870968 8.32258065 14.33870968 8.32258065 13 11 C12.34 11 11.68 11 11 11 C11.99 13.31 12.98 15.62 14 18 C12.125 17.8125 12.125 17.8125 10 17 C8.75 14.4375 8.75 14.4375 8 12 C6.02 12 4.04 12 2 12 C2 13.98 2 15.96 2 18 C1.34 18 0.68 18 0 18 C-0.04241723 15.66705225 -0.04092937 13.33297433 0 11 C1.81191882 9.18808118 4.72351299 9.5276487 7.1875 9.28125 C9.0167533 9.18001957 9.0167533 9.18001957 10 8 C10 6.35 10 4.7 10 3 C6.7 2.34 3.4 1.68 0 1 C0 0.67 0 0.34 0 0 Z " fill="#66C858" transform="translate(848,907)"/>
<path d="M0 0 C2.53910197 0.38520564 3.72751123 0.70097943 5.484375 2.62890625 C5.90203125 3.26699219 6.3196875 3.90507813 6.75 4.5625 C7.17796875 5.20316406 7.6059375 5.84382812 8.046875 6.50390625 C8.36140625 6.99761719 8.6759375 7.49132812 9 8 C9.32613281 7.4225 9.65226563 6.845 9.98828125 6.25 C10.42527344 5.5075 10.86226562 4.765 11.3125 4 C11.74175781 3.2575 12.17101562 2.515 12.61328125 1.75 C13.07089844 1.1725 13.52851562 0.595 14 0 C14.99 0 15.98 0 17 0 C15.89177136 3.04762875 14.63805896 5.59226716 12.9375 8.375 C10.83830103 11.92568971 10.33376514 14.91137702 10 19 C9.01 19 8.02 19 7 19 C6.89042969 18.33613281 6.78085937 17.67226563 6.66796875 16.98828125 C5.77839831 12.03416944 4.89625691 8.21273732 2 4 C2 3.34 2 2.68 2 2 C1.34 2 0.68 2 0 2 C0 1.34 0 0.68 0 0 Z " fill="#5BBD54" transform="translate(761,906)"/>
<path d="M0 0 C2.64 0 5.28 0 8 0 C8 2.64 8 5.28 8 8 C9.485 8.0928125 9.485 8.0928125 11 8.1875 C15.71827991 8.82432306 19.1745514 11.30728164 23 14 C22.34 15.65 21.68 17.3 21 19 C20.67 19 20.34 19 20 19 C20 17.35 20 15.7 20 14 C18.58398286 13.51891725 17.16715563 13.04021859 15.75 12.5625 C14.96109375 12.29566406 14.1721875 12.02882813 13.359375 11.75390625 C11.04130241 10.96957954 11.04130241 10.96957954 8.765625 10.52734375 C8.18296875 10.35332031 7.6003125 10.17929687 7 10 C5.64560332 7.29120665 5.93498549 4.99066732 6 2 C5.34 2 4.68 2 4 2 C3.71125 2.61875 3.4225 3.2375 3.125 3.875 C2 6 2 6 0 8 C0 5.36 0 2.72 0 0 Z " fill="#66BC4F" transform="translate(830,489)"/>
<path d="M0 0 C0.99 0 1.98 0 3 0 C3 5.28 3 10.56 3 16 C5.97 16 8.94 16 12 16 C12 16.99 12 17.98 12 19 C8.04 19 4.08 19 0 19 C0 12.73 0 6.46 0 0 Z " fill="#56B553" transform="translate(926,906)"/>
<path d="M0 0 C15.84 0 31.68 0 48 0 C48 0.33 48 0.66 48 1 C33.15 1.33 18.3 1.66 3 2 C2.15857316 7.82089237 2.15857316 7.82089237 1.68359375 13.62109375 C1.64169922 14.41064453 1.59980469 15.20019531 1.55664062 16.01367188 C1.51732422 16.81353516 1.47800781 17.61339844 1.4375 18.4375 C1.39431641 19.26443359 1.35113281 20.09136719 1.30664062 20.94335938 C1.20161967 22.96209549 1.10041441 24.98102951 1 27 C0.67 27 0.34 27 0 27 C0 18.09 0 9.18 0 0 Z " fill="#52B742" transform="translate(748,618)"/>
<path d="M0 0 C0.52851562 0.27585937 1.05703125 0.55171875 1.6015625 0.8359375 C0.9415625 2.1559375 0.2815625 3.4759375 -0.3984375 4.8359375 C-2.3984375 1.8359375 -2.3984375 1.8359375 -3.3984375 -0.1640625 C-15.33328868 -4.08604976 -30.23333028 -6.21909824 -42.3984375 -2.1640625 C-42.3984375 -3.1540625 -42.3984375 -4.1440625 -42.3984375 -5.1640625 C-28.79091356 -9.69990381 -12.49034288 -6.06208824 0 0 Z " fill="#7CDE67" transform="translate(788.3984375,781.1640625)"/>
<path d="M0 0 C0.8971875 0.309375 0.8971875 0.309375 1.8125 0.625 C-2.10171121 4.11375347 -6.00725294 7.21963937 -10.375 10.125 C-14.49678829 12.9353102 -16.66492513 15.38707421 -19.1875 19.625 C-20.1775 19.955 -21.1675 20.285 -22.1875 20.625 C-20.51572426 11.98436136 -11.8085697 6.58225529 -5.1875 1.625 C-2.1875 -0.375 -2.1875 -0.375 0 0 Z " fill="#A6EA68" transform="translate(789.1875,328.375)"/>
<path d="M0 0 C0.33 0 0.66 0 1 0 C1 6.6 1 13.2 1 20 C1.66 20.33 2.32 20.66 3 21 C2.99476318 21.60996826 2.98952637 22.21993652 2.98413086 22.84838867 C2.96326665 25.62808185 2.95030987 28.40775851 2.9375 31.1875 C2.92912109 32.14720703 2.92074219 33.10691406 2.91210938 34.09570312 C2.90727539 35.49272461 2.90727539 35.49272461 2.90234375 36.91796875 C2.89710693 37.77156982 2.89187012 38.6251709 2.88647461 39.50463867 C3.00420677 42.09246747 3.42892956 44.47661953 4 47 C3.01 47.495 3.01 47.495 2 48 C-0.58405416 38.17245544 -0.22398651 28.45481541 -0.125 18.375 C-0.11495103 16.58984877 -0.10582857 14.80469206 -0.09765625 13.01953125 C-0.0757925 8.67955069 -0.04136815 4.33983668 0 0 Z " fill="#399432" transform="translate(815,791)"/>
<path d="M0 0 C0.33 0 0.66 0 1 0 C1.02505615 0.57967529 1.0501123 1.15935059 1.07592773 1.7565918 C1.19246234 4.40042107 1.31492682 7.04394409 1.4375 9.6875 C1.47681641 10.59951172 1.51613281 11.51152344 1.55664062 12.45117188 C1.59853516 13.33740234 1.64042969 14.22363281 1.68359375 15.13671875 C1.73858032 16.35427856 1.73858032 16.35427856 1.79467773 17.59643555 C2.01042252 20.12200918 2.49399514 22.51827501 3 25 C3.33399259 33.04529198 3.03016629 41.01621129 2 49 C1.67 49 1.34 49 1 49 C-0.37522352 32.6937783 -0.09724851 16.34822194 0 0 Z " fill="#3FA437" transform="translate(964,807)"/>
<path d="M0 0 C5 2 5 2 7 3 C7.25 6.3125 7.25 6.3125 7 10 C5.1875 11.9375 5.1875 11.9375 3 13 C2.01 13 1.02 13 0 13 C0 8.71 0 4.42 0 0 Z " fill="#040E04" transform="translate(837,531)"/>
<path d="M0 0 C0.33 0 0.66 0 1 0 C1 1.65 1 3.3 1 5 C6.445 4.505 6.445 4.505 12 4 C12.66 6.31 13.32 8.62 14 11 C13.01 11 12.02 11 11 11 C10.67 9.68 10.34 8.36 10 7 C6.37 7 2.74 7 -1 7 C-1.33 8.32 -1.66 9.64 -2 11 C-2.99 11 -3.98 11 -5 11 C-4.54917531 9.53932801 -4.08906463 8.08151968 -3.625 6.625 C-3.36976563 5.81289063 -3.11453125 5.00078125 -2.8515625 4.1640625 C-2 2 -2 2 0 0 Z " fill="#61C159" transform="translate(331,914)"/>
<path d="M0 0 C0.99 0 1.98 0 3 0 C3 5.61 3 11.22 3 17 C5.64 17 8.28 17 11 17 C11 17.66 11 18.32 11 19 C7.37 19 3.74 19 0 19 C0 12.73 0 6.46 0 0 Z " fill="#67C75D" transform="translate(356,906)"/>
<path d="M0 0 C6.0546875 -0.1953125 6.0546875 -0.1953125 8 0 C8.66 0.66 9.32 1.32 10 2 C9.75 4.5625 9.75 4.5625 9 7 C6.04335481 8.4783226 3.25770263 8.06032783 0 8 C0 5.36 0 2.72 0 0 Z " fill="#0E1E0E" transform="translate(578,909)"/>
<path d="M0 0 C0 0.66 0 1.32 0 2 C-0.79664063 2.32871094 -0.79664063 2.32871094 -1.609375 2.6640625 C-6.68630392 4.94312183 -9.27252642 6.96466417 -12 12 C-12.350625 12.62390625 -12.70125 13.2478125 -13.0625 13.890625 C-14.10803667 16.24308251 -14.39934591 18.192587 -14.625 20.75 C-14.69976563 21.54921875 -14.77453125 22.3484375 -14.8515625 23.171875 C-14.90054688 23.77515625 -14.94953125 24.3784375 -15 25 C-15.66 25 -16.32 25 -17 25 C-17.54538548 18.40689547 -17.60211874 13.28302019 -13.62890625 7.79296875 C-9.61269155 3.37224322 -6.1115561 0 0 0 Z " fill="#5DC052" transform="translate(744,778)"/>
<path d="M0 0 C4.64989987 1.82208155 8.3927685 4.15658332 12.25 7.3125 C11.59 7.6425 10.93 7.9725 10.25 8.3125 C8.21855359 7.37803465 6.21466413 6.38025224 4.25 5.3125 C4.25 4.6525 4.25 3.9925 4.25 3.3125 C3.280625 3.18875 2.31125 3.065 1.3125 2.9375 C-1.55633247 2.53921139 -4.31461379 1.94642259 -7.125 1.25 C-12.64162292 -0.01148033 -18.00243637 -0.23701273 -23.5625 0.875 C-25.9751739 1.35753478 -27.43813283 1.08312239 -29.75 0.3125 C-21.65122193 -4.23852299 -8.54881032 -2.67963978 0 0 Z " fill="#81E66C" transform="translate(1020.75,776.6875)"/>
<path d="M0 0 C6.15234375 -0.09765625 6.15234375 -0.09765625 8 0 C9 1 9 1 9.0625 4.0625 C9.041875 5.031875 9.02125 6.00125 9 7 C6.04335481 8.4783226 3.25770263 8.06032783 0 8 C0 5.36 0 2.72 0 0 Z " fill="#0E1C0D" transform="translate(492,909)"/>
<path d="M0 0 C6.15234375 -0.09765625 6.15234375 -0.09765625 8 0 C9 1 9 1 9.1875 3.4375 C9 6 9 6 7 8 C3.375 8.125 3.375 8.125 0 8 C0 5.36 0 2.72 0 0 Z " fill="#0A170B" transform="translate(695,909)"/>
<path d="M0 0 C4.90405117 4.1684435 4.90405117 4.1684435 5.375 8.25 C5 11 5 11 4 12 C2.52645652 12.09304018 1.04849409 12.11746265 -0.42797852 12.11352539 C-1.36887833 12.11344986 -2.30977814 12.11337433 -3.27919006 12.11329651 C-4.30209641 12.10813522 -5.32500275 12.10297394 -6.37890625 12.09765625 C-7.42070541 12.0962413 -8.46250458 12.09482635 -9.53587341 12.09336853 C-12.87811094 12.0877508 -16.22028257 12.0751953 -19.5625 12.0625 C-21.82226466 12.05748728 -24.08203037 12.05292398 -26.34179688 12.04882812 C-31.89455391 12.03777561 -37.44727225 12.02102024 -43 12 C-43 11.67 -43 11.34 -43 11 C-27.82 11 -12.64 11 3 11 C2.01 7.37 1.02 3.74 0 0 Z " fill="#68D757" transform="translate(928,797)"/>
<path d="M0 0 C4.29 0 8.58 0 13 0 C13 0.33 13 0.66 13 1 C9.37 1 5.74 1 2 1 C2 5.95 2 10.9 2 16 C5.96 16 9.92 16 14 16 C14 16.66 14 17.32 14 18 C9.38 18 4.76 18 0 18 C0 12.06 0 6.12 0 0 Z " fill="#76E76A" transform="translate(603,907)"/>
<path d="M0 0 C0.99 0.33 1.98 0.66 3 1 C0.43548311 3.71537083 -1.83464722 5.90213815 -5.0625 7.8125 C-8.40729019 10.30330121 -9.50391932 12.3576402 -11.140625 16.09765625 C-12 18 -12 18 -14 21 C-14.71875 18.84375 -14.71875 18.84375 -15 16 C-11.54747655 9.32512133 -6.59230703 3.61930582 0 0 Z " fill="#6AD55E" transform="translate(982,780)"/>
<path d="M0 0 C1.87988281 0.29541016 1.87988281 0.29541016 4 1 C5.4500783 3.46984881 6.62021639 5.76631509 7.75 8.375 C8.22373047 9.40367187 8.22373047 9.40367187 8.70703125 10.453125 C10.05486384 13.45219839 11 15.67828502 11 19 C10.01 19 9.02 19 8 19 C7.67 17.35 7.34 15.7 7 14 C4.03 14 1.06 14 -2 14 C-2 13.67 -2 13.34 -2 13 C0.64 13 3.28 13 6 13 C5.2575 11.9171875 5.2575 11.9171875 4.5 10.8125 C2.92080715 7.85151341 2.71821688 6.28746971 3 3 C2.01 3 1.02 3 0 3 C0 2.01 0 1.02 0 0 Z " fill="#65C557" transform="translate(467,906)"/>
<path d="M0 0 C8.91 0 17.82 0 27 0 C26.67 0.66 26.34 1.32 26 2 C18.41 2 10.82 2 3 2 C3.33 2.99 3.66 3.98 4 5 C3.01 6.485 3.01 6.485 2 8 C0.23537317 4.91190305 0 3.76687864 0 0 Z " fill="#469C39" transform="translate(696,660)"/>
<path d="M0 0 C0.66 0.66 1.32 1.32 2 2 C1.5875 2.58265625 1.175 3.1653125 0.75 3.765625 C-3.94859538 10.43595237 -8.49210618 17.19981235 -13 24 C-14.49866013 26.25089583 -15.99938743 28.50040443 -17.5 30.75 C-18.50546875 32.25820313 -18.50546875 32.25820313 -19.53125 33.796875 C-20.0159375 34.52390625 -20.500625 35.2509375 -21 36 C-21.33 35.34 -21.66 34.68 -22 34 C-21.13891602 32.21923828 -21.13891602 32.21923828 -19.75390625 30.0703125 C-19.24972168 29.28011719 -18.74553711 28.48992188 -18.22607422 27.67578125 C-17.67709473 26.83402344 -17.12811523 25.99226562 -16.5625 25.125 C-16.01352051 24.27035156 -15.46454102 23.41570313 -14.89892578 22.53515625 C-10.67253243 15.97478448 -6.37531814 9.46200833 -2 3 C-1.34 2.01 -0.68 1.02 0 0 Z " fill="#4AA83C" transform="translate(665,491)"/>
<path d="M0 0 C0.33 0 0.66 0 1 0 C1 2.97 1 5.94 1 9 C1.99 9.33 2.98 9.66 4 10 C3.01 11.98 2.02 13.96 1 16 C-4.70709064 15.53411505 -8.15939723 14.06242216 -13 11 C-13.680625 11.99 -13.680625 11.99 -14.375 13 C-14.91125 13.66 -15.4475 14.32 -16 15 C-16.66 15 -17.32 15 -18 15 C-16.52307692 10.32307692 -16.52307692 10.32307692 -13.875 8.6875 C-13.25625 8.460625 -12.6375 8.23375 -12 8 C-11.2575 8.6496875 -11.2575 8.6496875 -10.5 9.3125 C-7.16471603 11.56381668 -3.79696858 12.671061 0 14 C0 9.38 0 4.76 0 0 Z " fill="#337F2C" transform="translate(830,530)"/>
<path d="M0 0 C3.16115776 1.36983503 3.9927092 1.9890638 6 5 C6.70157408 10.26180564 5.15921695 12.85352775 2 17 C-0.97 16.67 -3.94 16.34 -7 16 C-7 15.67 -7 15.34 -7 15 C-5.88625 14.896875 -4.7725 14.79375 -3.625 14.6875 C-2.42875 14.460625 -1.2325 14.23375 0 14 C2.17175481 10.74236778 2.46043998 9.77560787 2 6 C0.60042803 3.71515694 0.60042803 3.71515694 -1 2 C-0.67 1.34 -0.34 0.68 0 0 Z " fill="#55AF4F" transform="translate(801,907)"/>
<path d="M0 0 C0 3.58912412 -0.66436554 4.10857029 -3 6.6875 C-3.556875 7.31011719 -4.11375 7.93273437 -4.6875 8.57421875 C-5.120625 9.04472656 -5.55375 9.51523437 -6 10 C-4.28490234 10.07347656 -4.28490234 10.07347656 -2.53515625 10.1484375 C-1.04424527 10.22345189 0.44663892 10.29900028 1.9375 10.375 C3.06961914 10.42140625 3.06961914 10.42140625 4.22460938 10.46875 C6.15507395 10.5726315 8.07942081 10.77895614 10 11 C10.33 11.66 10.66 12.32 11 13 C3.74 13 -3.52 13 -11 13 C-11 12.34 -11 11.68 -11 11 C-9.948125 10.1646875 -9.948125 10.1646875 -8.875 9.3125 C-5.43672242 6.54692891 -2.78272367 3.40429424 0 0 Z " fill="#15471E" transform="translate(509,677)"/>
<path d="M0 0 C0.99 0.66 1.98 1.32 3 2 C0.17011407 14.19476615 -5.46824707 23.2452831 -13 33 C-13.33 32.34 -13.66 31.68 -14 31 C-12.6464707 28.71816521 -11.24892837 26.55796877 -9.75 24.375 C-4.53934349 16.52161818 -1.82632188 9.28201236 0 0 Z " fill="#216328" transform="translate(552,610)"/>
<path d="M0 0 C10.8137021 0.85823033 19.86650083 4.00467747 29 10 C29.99 11.485 29.99 11.485 31 13 C30.01 13.495 30.01 13.495 29 14 C28.34 13.34 27.68 12.68 27 12 C25.68352881 11.30062468 24.34977849 10.63270867 23 10 C22.34 9.67 21.68 9.34 21 9 C21 8.34 21 7.68 21 7 C20.35933594 6.87882812 19.71867187 6.75765625 19.05859375 6.6328125 C5.29785156 3.96679688 5.29785156 3.96679688 0 1 C0 0.67 0 0.34 0 0 Z " fill="#ACE768" transform="translate(456,320)"/>
<path d="M0 0 C10.75 -0.125 10.75 -0.125 13 1 C13 1.66 13 2.32 13 3 C9.37 2.67 5.74 2.34 2 2 C2 7.61 2 13.22 2 19 C1.34 19 0.68 19 0 19 C0 12.73 0 6.46 0 0 Z " fill="#5DBD53" transform="translate(575,906)"/>
<path d="M0 0 C6.15234375 -0.09765625 6.15234375 -0.09765625 8 0 C9 1 9 1 9.125 3.5 C9 6 9 6 8 7 C5.32941149 7.14115161 2.67567762 7.04247107 0 7 C0 4.69 0 2.38 0 0 Z " fill="#050C05" transform="translate(850,909)"/>
<path d="M0 0 C1.485 0.99 1.485 0.99 3 2 C-2.43432693 8.87823022 -7.18635559 14.16382408 -16 16 C-21.47621602 16.55344736 -26.13903253 16.82614388 -31 14 C-29 13 -29 13 -27.3125 13.4375 C-20.09503167 15.1931004 -14.43960431 13.17060314 -8 10 C-3.74609561 7.28474188 -1.99291644 4.61517491 0 0 Z " fill="#3FA134" transform="translate(1027,824)"/>
<path d="M0 0 C0.33 0 0.66 0 1 0 C1 4.29 1 8.58 1 13 C5.10554292 12.95697553 5.10554292 12.95697553 9 12 C10.89959629 8.62331906 10.89959629 8.62331906 12 5 C12.99 4.34 13.98 3.68 15 3 C15.60552093 10.14514693 15.60552093 10.14514693 12.875 14 C9.50172663 16.34662495 8.02250703 16.59909679 4 16 C2.68 15.34 1.36 14.68 0 14 C0 9.38 0 4.76 0 0 Z " fill="#459644" transform="translate(722,909)"/>
<path d="M0 0 C3.91454724 1.58424029 6.54480012 4.27562738 9.4375 7.25 C9.92250977 7.74508057 10.40751953 8.24016113 10.90722656 8.75024414 C12.27892079 10.1596299 13.63979636 11.57952145 15 13 C15.61488281 13.63292969 16.22976563 14.26585937 16.86328125 14.91796875 C18.25 16.4375 18.25 16.4375 20 19 C19.8125 21.375 19.8125 21.375 19 23 C19 22.01 19 21.02 19 20 C18.38125 19.7525 17.7625 19.505 17.125 19.25 C15 18 15 18 14.10546875 16.13671875 C12.80867617 13.63019741 11.35420482 12.35634931 9.1875 10.5625 C5.96208279 7.82471417 2.85663118 5.12444035 0 2 C0 1.34 0 0.68 0 0 Z " fill="#A6E866" transform="translate(487,333)"/>
<path d="M0 0 C5.28 0 10.56 0 16 0 C15.67 1.32 15.34 2.64 15 4 C15 3.34 15 2.68 15 2 C9.06 2.495 9.06 2.495 3 3 C2.34 8.61 1.68 14.22 1 20 C0.67 20 0.34 20 0 20 C0 13.4 0 6.8 0 0 Z " fill="#89EC6F" transform="translate(816,756)"/>
<path d="M0 0 C2 2 2 2 2.046875 4.828125 C1.94890625 5.95734375 1.8509375 7.0865625 1.75 8.25 C1.61851562 9.92835938 1.61851562 9.92835938 1.484375 11.640625 C1.00458988 14.96816694 0.12879599 17.84205883 -1 21 C-1.165 21.928125 -1.33 22.85625 -1.5 23.8125 C-1.665 24.534375 -1.83 25.25625 -2 26 C-2.66 26.33 -3.32 26.66 -4 27 C-2 8.65957447 -2 8.65957447 0 0 Z " fill="#2C7830" transform="translate(557,583)"/>
<path d="M0 0 C1.32 0 2.64 0 4 0 C4 3.63 4 7.26 4 11 C0 10 0 10 -2 8 C-2.25 5 -2.25 5 -2 2 C-1.34 1.34 -0.68 0.68 0 0 Z " fill="#050D05" transform="translate(826,507)"/>
<path d="M0 0 C0.66 0.33 1.32 0.66 2 1 C1.46632813 1.64324219 0.93265625 2.28648437 0.3828125 2.94921875 C-5.57745233 10.17784444 -11.32437376 17.54703777 -17 25 C-17.66 24.67 -18.32 24.34 -19 24 C-19 23.34 -19 22.68 -19 22 C-18.34 22 -17.68 22 -17 22 C-17 21.34 -17 20.68 -17 20 C-16.34 20 -15.68 20 -15 20 C-14.34 18.35 -13.68 16.7 -13 15 C-12.34 15 -11.68 15 -11 15 C-10.731875 14.195625 -10.46375 13.39125 -10.1875 12.5625 C-9.795625 11.716875 -9.40375 10.87125 -9 10 C-8.01 9.67 -7.02 9.34 -6 9 C-4.78130071 6.49552484 -4.78130071 6.49552484 -4 4 C-3.34 4 -2.68 4 -2 4 C-1.34 2.68 -0.68 1.36 0 0 Z " fill="#4EAA3E" transform="translate(759,485)"/>
<path d="M0 0 C0.99 0 1.98 0 3 0 C4.99785435 4.1205746 5.17835515 7.45194365 5 12 C4.34 12 3.68 12 3 12 C2.67 10.35 2.34 8.7 2 7 C0.68 8.32 -0.64 9.64 -2 11 C-2.28571429 3.57142857 -2.28571429 3.57142857 0 0 Z " fill="#61C757" transform="translate(639,906)"/>
<path d="M0 0 C0.70125 0.01417969 1.4025 0.02835938 2.125 0.04296875 C3.176875 0.05263672 3.176875 0.05263672 4.25 0.0625 C6.125 0.23046875 6.125 0.23046875 8.125 1.23046875 C8.125 2.22046875 8.125 3.21046875 8.125 4.23046875 C5.155 4.23046875 2.185 4.23046875 -0.875 4.23046875 C-0.875 5.88046875 -0.875 7.53046875 -0.875 9.23046875 C-2.195 8.57046875 -3.515 7.91046875 -4.875 7.23046875 C-3.8072375 0.46797294 -3.8072375 0.46797294 0 0 Z " fill="#62D35A" transform="translate(878.875,905.76953125)"/>
<path d="M0 0 C1.65 1.65 3.3 3.3 5 5 C4.34 6.32 3.68 7.64 3 9 C2.67 9 2.34 9 2 9 C1.67 16.92 1.34 24.84 1 33 C0.67 33 0.34 33 0 33 C0 22.11 0 11.22 0 0 Z " fill="#111111" transform="translate(234,782)"/>
<path d="M0 0 C0.515625 0.2475 1.03125 0.495 1.5625 0.75 C-0.4375 2.75 -0.4375 2.75 -3.5 3.8125 C-8.92146212 5.99930825 -12.53100652 10.55708338 -16.4375 14.75 C-17.0975 15.41 -17.7575 16.07 -18.4375 16.75 C-17.68178559 10.54234594 -14.01897482 7.6630034 -9.4375 3.75 C-3.83103891 -0.39292707 -3.83103891 -0.39292707 0 0 Z " fill="#74DA64" transform="translate(892.4375,778.25)"/>
<path d="M0 0 C4.92492905 4.76606037 9.45165478 9.87695412 14 15 C14.56976562 15.61875 15.13953125 16.2375 15.7265625 16.875 C17.125 18.4375 17.125 18.4375 19 21 C18.67 21.99 18.34 22.98 18 24 C17.4225 23.2575 16.845 22.515 16.25 21.75 C14.13889061 19.07670078 14.13889061 19.07670078 12.125 17.125 C9.23326143 14.23326143 6.62973138 11.12895846 4 8 C2.824375 6.63875 2.824375 6.63875 1.625 5.25 C0 3 0 3 0 0 Z " fill="#71CF51" transform="translate(537,388)"/>
<path d="M0 0 C9.1796875 -0.29296875 9.1796875 -0.29296875 12 0 C14 3 14 3 13.625 6.1875 C13.41875 7.115625 13.2125 8.04375 13 9 C12.67 9 12.34 9 12 9 C11.67 7.35 11.34 5.7 11 4 C9.081875 3.814375 9.081875 3.814375 7.125 3.625 C3.25 3.25 3.25 3.25 1 1 C1 6.94 1 12.88 1 19 C0.67 19 0.34 19 0 19 C0 12.73 0 6.46 0 0 Z " fill="#54A449" transform="translate(489,906)"/>
<path d="M0 0 C5.96871714 4.8257713 10.96292308 10.22051808 16 16 C16.5671875 16.61746094 17.134375 17.23492187 17.71875 17.87109375 C19.125 19.4375 19.125 19.4375 21 22 C20.67 22.99 20.34 23.98 20 25 C20 24.34 20 23.68 20 23 C19.34 23 18.68 23 18 23 C16.58561594 21.42713316 15.24395599 19.78860004 13.9375 18.125 C10.02954039 13.22101822 5.93975535 8.5766617 1.65234375 3.99609375 C0 2 0 2 0 0 Z " fill="#64C74A" transform="translate(562,418)"/>
<path d="M0 0 C3.63 0 7.26 0 11 0 C10.67 0.66 10.34 1.32 10 2 C9.960008 3.99960012 9.95653201 6.00047242 10 8 C9.67 7.01 9.34 6.02 9 5 C6.03 5 3.06 5 0 5 C0 3.35 0 1.7 0 0 Z " fill="#050E05" transform="translate(606,909)"/>
<path d="M0 0 C0.33 0 0.66 0 1 0 C1 5.94 1 11.88 1 18 C-3.95 18 -8.9 18 -14 18 C-14 16.02 -14 14.04 -14 12 C-13.67 12 -13.34 12 -13 12 C-13 13.65 -13 15.3 -13 17 C-9.37 17 -5.74 17 -2 17 C-0.85185003 14.70370006 -0.69230191 12.92301914 -0.4375 10.375 C-0.35371094 9.55773437 -0.26992188 8.74046875 -0.18359375 7.8984375 C-0.12300781 7.27195312 -0.06242188 6.64546875 0 6 C-0.66 6 -1.32 6 -2 6 C-2 4.68 -2 3.36 -2 2 C-1.34 2 -0.68 2 0 2 C0 1.34 0 0.68 0 0 Z " fill="#E1E0E0" transform="translate(524,833)"/>
<path d="M0 0 C0.66 0 1.32 0 2 0 C2.33 6.27 2.66 12.54 3 19 C2.01 19 1.02 19 0 19 C0 12.73 0 6.46 0 0 Z " fill="#6FD164" transform="translate(379,906)"/>
<path d="M0 0 C0.66 0.99 1.32 1.98 2 3 C-6.261959 13.55808656 -6.261959 13.55808656 -11 18 C-10.55077798 12.92474701 -8.02986697 10.00297892 -4.9375 6.1875 C-4.22883789 5.2912793 -4.22883789 5.2912793 -3.50585938 4.37695312 C-2.34527494 2.91156874 -1.17371168 1.45489124 0 0 Z " fill="#94E161" transform="translate(766,347)"/>
<path d="M0 0 C1.32 0.33 2.64 0.66 4 1 C4.66 4.3 5.32 7.6 6 11 C3 8 3 8 2 6 C0.68 6.33 -0.64 6.66 -2 7 C-1.125 1.125 -1.125 1.125 0 0 Z " fill="#64C059" transform="translate(334,906)"/>
<path d="M0 0 C0.66 0 1.32 0 2 0 C2.05397335 2.4377963 2.09365616 4.87439685 2.125 7.3125 C2.15013672 8.34793945 2.15013672 8.34793945 2.17578125 9.40429688 C2.21217794 13.17135396 2.14378864 14.78431704 0 18 C-1.32 17.67 -2.64 17.34 -4 17 C-3.51917969 16.47921875 -3.03835938 15.9584375 -2.54296875 15.421875 C-0.54826135 12.29094187 -0.49681589 9.93631779 -0.3125 6.25 C-0.24675781 5.07953125 -0.18101562 3.9090625 -0.11328125 2.703125 C-0.05720703 1.36507812 -0.05720703 1.36507812 0 0 Z " fill="#68D35E" transform="translate(832,906)"/>
<path d="M0 0 C0.99 0.33 1.98 0.66 3 1 C2.2884375 1.804375 2.2884375 1.804375 1.5625 2.625 C-1.67721055 7.54936004 -1.09804087 13.31362983 -1 19 C-3.07776754 17.30802484 -3.92301562 16.40295429 -4.43359375 13.73046875 C-4.44269082 7.8082736 -3.84319177 4.56379023 0 0 Z " fill="#64C955" transform="translate(817,502)"/>
<path d="M0 0 C0.99 0.33 1.98 0.66 3 1 C-3.93 9.415 -3.93 9.415 -11 18 C-11.33 17.01 -11.66 16.02 -12 15 C-11.34 14.01 -10.68 13.02 -10 12 C-9.34 12 -8.68 12 -8 12 C-8 11.34 -8 10.68 -8 10 C-7.34 10 -6.68 10 -6 10 C-6 9.01 -6 8.02 -6 7 C-5.34 7 -4.68 7 -4 7 C-4 6.34 -4 5.68 -4 5 C-3.34 5 -2.68 5 -2 5 C-1.34 3.35 -0.68 1.7 0 0 Z " fill="#48A13A" transform="translate(738,510)"/>
<path d="M0 0 C1.32 0 2.64 0 4 0 C6.20808081 5.19548425 5.93402724 8.58264203 5 14 C2.99006295 10.98509443 2.27376659 8.7850073 1.375 5.3125 C1.11460937 4.31863281 0.85421875 3.32476563 0.5859375 2.30078125 C0.39257812 1.54152344 0.19921875 0.78226563 0 0 Z " fill="#5AB04E" transform="translate(290,906)"/>
<path d="M0 0 C2.20770805 -0.08165496 4.41630425 -0.13948488 6.625 -0.1875 C7.85476563 -0.22230469 9.08453125 -0.25710938 10.3515625 -0.29296875 C14.26407664 0.0212053 16.64070218 1.03093467 20 3 C16.25 4.125 16.25 4.125 14 3 C11.45384991 2.76827173 8.92603775 2.58105471 6.375 2.4375 C5.66859375 2.39431641 4.9621875 2.35113281 4.234375 2.30664062 C2.48981463 2.20055249 0.74493303 2.09977111 -1 2 C-0.67 1.34 -0.34 0.68 0 0 Z " fill="#6BCA5F" transform="translate(902,788)"/>
<path d="M0 0 C1.15725586 -0.01160156 1.15725586 -0.01160156 2.33789062 -0.0234375 C8.05904908 -0.00345092 8.05904908 -0.00345092 10.3125 2.25 C9.3225 2.58 8.3325 2.91 7.3125 3.25 C6.6525 2.92 5.9925 2.59 5.3125 2.25 C-0.72665135 1.77525867 -5.97809151 2.26411879 -11.6875 4.25 C-12.3475 3.59 -13.0075 2.93 -13.6875 2.25 C-9.10235508 -0.05630044 -5.00978203 -0.05099015 0 0 Z " fill="#81E56D" transform="translate(908.6875,774.75)"/>
<path d="M0 0 C1.27445454 0.42683632 2.54445882 0.86697202 3.8125 1.3125 C4.52019531 1.55613281 5.22789062 1.79976562 5.95703125 2.05078125 C8.22488646 3.10448835 9.49510874 4.00139047 11 6 C11 7.32 11 8.64 11 10 C10.34 10 9.68 10 9 10 C8.67 8.68 8.34 7.36 8 6 C3.545 5.01 3.545 5.01 -1 4 C-0.67 2.68 -0.34 1.36 0 0 Z " fill="#4DAB45" transform="translate(877,912)"/>
<path d="M0 0 C0.66 0.66 1.32 1.32 2 2 C1.34 2 0.68 2 0 2 C0 2.99 0 3.98 0 5 C-2.70794407 8.08404742 -5.17647894 10.4422692 -9 12 C-7.50948318 7.39294801 -5.21457741 4.53603516 -2 1 C-1.34 0.67 -0.68 0.34 0 0 Z " fill="#131416" transform="translate(375,794)"/>
<path d="M0 0 C3.534895 1.48879587 5.68322222 3.48429115 8.25 6.3125 C8.95640625 7.07175781 9.6628125 7.83101562 10.390625 8.61328125 C12.23597951 11.3499599 12.34316564 12.76852356 12 16 C9.84622436 13.37801226 8.59927826 11.35595828 8 8 C7.34 8 6.68 8 6 8 C6 7.34 6 6.68 6 6 C5.34 6 4.68 6 4 6 C4 5.34 4 4.68 4 4 C2.68 3.34 1.36 2.68 0 2 C0 1.34 0 0.68 0 0 Z " fill="#70D65F" transform="translate(932,782)"/>
<path d="M0 0 C0.474375 0.495 0.94875 0.99 1.4375 1.5 C2.75923698 3.11542197 2.75923698 3.11542197 4 3 C4.33 5.31 4.66 7.62 5 10 C3.68 10.33 2.36 10.66 1 11 C-1.42857143 3.57142857 -1.42857143 3.57142857 0 0 Z " fill="#56AF4F" transform="translate(644,914)"/>
<path d="M0 0 C1.97909398 -0.02686553 3.95828971 -0.04633375 5.9375 -0.0625 C7.03964844 -0.07410156 8.14179687 -0.08570313 9.27734375 -0.09765625 C12 0 12 0 13 1 C13.04092937 3.33297433 13.04241723 5.66705225 13 8 C12.731875 7.38125 12.46375 6.7625 12.1875 6.125 C11.04443152 3.7004767 11.04443152 3.7004767 8 2 C5.67612053 1.60612212 3.34206251 1.26513915 1 1 C1 3.97 1 6.94 1 10 C0.67 10 0.34 10 0 10 C0 6.7 0 3.4 0 0 Z " fill="#77E868" transform="translate(693,907)"/>
<path d="M0 0 C3.8654316 3.8654316 4.14314221 6.31980793 4.1875 11.625 C4.20167969 12.40101563 4.21585938 13.17703125 4.23046875 13.9765625 C4 16 4 16 2 18 C1.34 12.06 0.68 6.12 0 0 Z " fill="#61CB56" transform="translate(650,415)"/>
<path d="M0 0 C2.31 0 4.62 0 7 0 C7.33 1.65 7.66 3.3 8 5 C6.02 5 4.04 5 2 5 C2 4.34 2 3.68 2 3 C1.01 2.67 0.02 2.34 -1 2 C-0.67 1.34 -0.34 0.68 0 0 Z " fill="#070F08" transform="translate(876,917)"/>
<path d="M0 0 C2.97 0.33 5.94 0.66 9 1 C8.01 1.495 8.01 1.495 7 2 C6.67 2.99 6.34 3.98 6 5 C3.03 4.505 3.03 4.505 0 4 C0 2.68 0 1.36 0 0 Z " fill="#09150A" transform="translate(878,909)"/>
<path d="M0 0 C1.875 0.125 1.875 0.125 4 1 C5.25 4.0625 5.25 4.0625 6 7 C5.01 7.495 5.01 7.495 4 8 C3.5316735 10.58605332 3.5316735 10.58605332 3.375 13.5625 C3.30023437 14.57441406 3.22546875 15.58632813 3.1484375 16.62890625 C3.09945312 17.41136719 3.05046875 18.19382812 3 19 C2.67 19 2.34 19 2 19 C2 13.72 2 8.44 2 3 C1.34 2.67 0.68 2.34 0 2 C0 1.34 0 0.68 0 0 Z " fill="#57A84D" transform="translate(517,906)"/>
<path d="M0 0 C4.29 0 8.58 0 13 0 C13 0.66 13 1.32 13 2 C9.37 2 5.74 2 2 2 C2 4.31 2 6.62 2 9 C1.67 9 1.34 9 1 9 C0.67 6.03 0.34 3.06 0 0 Z " fill="#63CE57" transform="translate(900,906)"/>
<path d="M0 0 C0.66 0.33 1.32 0.66 2 1 C-1.63970245 5.08087851 -4.80041714 7.26680571 -10 9 C-13.4375 9.1875 -13.4375 9.1875 -16 9 C-12.59191808 6.72794538 -9.20167467 5.50418697 -5.375 4.09765625 C-3.01637799 3.00756943 -1.68636459 1.94708544 0 0 Z " fill="#38932F" transform="translate(932,830)"/>
<path d="M0 0 C0.33 0 0.66 0 1 0 C1.33 1.65 1.66 3.3 2 5 C5.63 5.33 9.26 5.66 13 6 C13 6.66 13 7.32 13 8 C8.71 8 4.42 8 0 8 C0 5.36 0 2.72 0 0 Z " fill="#5DCC54" transform="translate(900,917)"/>
<path d="M0 0 C0.33 1.32 0.66 2.64 1 4 C4.96 4 8.92 4 13 4 C13 4.66 13 5.32 13 6 C8.38 6 3.76 6 -1 6 C-0.67 4.02 -0.34 2.04 0 0 Z " fill="#63CE59" transform="translate(604,919)"/>
<path d="M0 0 C2 2 2 2 2.1875 4.5625 C2 7 2 7 1 8 C0.76321284 10.69235776 0.57801975 13.36498156 0.4375 16.0625 C0.39431641 16.82111328 0.35113281 17.57972656 0.30664062 18.36132812 C0.20026367 20.24065438 0.09960066 22.12030244 0 24 C-0.33 24 -0.66 24 -1 24 C-1.02909763 20.75001888 -1.04683161 17.50007143 -1.0625 14.25 C-1.07087891 13.32960938 -1.07925781 12.40921875 -1.08789062 11.4609375 C-1.09111328 10.57148437 -1.09433594 9.68203125 -1.09765625 8.765625 C-1.10289307 7.94868164 -1.10812988 7.13173828 -1.11352539 6.29003906 C-1.00299021 4.06031865 -0.62055567 2.13866245 0 0 Z " fill="#58C74E" transform="translate(966,798)"/>
<path d="M0 0 C1.26650391 0.00966797 1.26650391 0.00966797 2.55859375 0.01953125 C3.43128906 0.03628906 4.30398438 0.05304687 5.203125 0.0703125 C6.53537109 0.08384766 6.53537109 0.08384766 7.89453125 0.09765625 C10.08100558 0.12116673 12.26692594 0.15402751 14.453125 0.1953125 C11.22153472 1.92476988 9.19910604 2.39970314 5.515625 2.2578125 C1.96559485 2.17440504 -1.06710007 2.47888825 -4.546875 3.1953125 C-6.859375 2.7578125 -6.859375 2.7578125 -8.546875 2.1953125 C-5.55561181 0.47325062 -3.44001787 -0.04648673 0 0 Z " fill="#7BDC69" transform="translate(999.546875,774.8046875)"/>
<path d="M0 0 C0.33 0 0.66 0 1 0 C1 5.94 1 11.88 1 18 C-3 16 -3 16 -3.75 13.875 C-3.8325 13.25625 -3.915 12.6375 -4 12 C-2.68 12.33 -1.36 12.66 0 13 C0 8.71 0 4.42 0 0 Z " fill="#78E269" transform="translate(531,907)"/>
<path d="M0 0 C2.50037734 2.17424117 3.43628586 3.73045798 4 7 C1.69 7 -0.62 7 -3 7 C-1.125 1.125 -1.125 1.125 0 0 Z " fill="#0E1F0D" transform="translate(671,911)"/>
<path d="M0 0 C0.66 0.33 1.32 0.66 2 1 C2.73075648 3.3140622 3.40138258 5.64828869 4 8 C2.02 8 0.04 8 -2 8 C-1.125 2.25 -1.125 2.25 0 0 Z " fill="#0B190B" transform="translate(468,910)"/>
<path d="M0 0 C0.99 0 1.98 0 3 0 C3 0.66 3 1.32 3 2 C2.01 2.495 2.01 2.495 1 3 C0.690625 4.134375 0.38125 5.26875 0.0625 6.4375 C-1 10 -1 10 -4 12 C-3.53898164 7.29761275 -2.96823597 3.76737643 0 0 Z " fill="#5DC25C" transform="translate(670,906)"/>
<path d="M0 0 C0.99 0.66 1.98 1.32 3 2 C2.28269264 5.23165844 1.18684926 8.18707922 -0.0625 11.25 C-0.42472656 12.14203125 -0.78695312 13.0340625 -1.16015625 13.953125 C-1.43730469 14.62859375 -1.71445312 15.3040625 -2 16 C-3.26977059 12.19068824 -2.52074507 10.18381007 -1.5625 6.3125 C-1.27503906 5.13300781 -0.98757813 3.95351563 -0.69140625 2.73828125 C-0.46324219 1.83464844 -0.23507812 0.93101562 0 0 Z " fill="#266E2D" transform="translate(552,610)"/>
<path d="M0 0 C0.66 0.33 1.32 0.66 2 1 C-3.445 7.93 -3.445 7.93 -9 15 C-9.33 14.01 -9.66 13.02 -10 12 C-8.92578125 10.09765625 -8.92578125 10.09765625 -7.3125 8.0625 C-6.75949219 7.36253906 -6.20648437 6.66257812 -5.63671875 5.94140625 C-3.86324641 3.8377887 -2.02231069 1.86674833 0 0 Z " fill="#439A39" transform="translate(723,530)"/>
<path d="M0 0 C0.66 0.66 1.32 1.32 2 2 C4.66242821 2.46290221 4.66242821 2.46290221 7.625 2.625 C9.12933594 2.73714844 9.12933594 2.73714844 10.6640625 2.8515625 C11.43492187 2.90054688 12.20578125 2.94953125 13 3 C13 3.66 13 4.32 13 5 C8.71 5 4.42 5 0 5 C0 3.35 0 1.7 0 0 Z " fill="#65D15E" transform="translate(436,920)"/>
<path d="M0 0 C4.875 1.75 4.875 1.75 6 4 C4.68 3.67 3.36 3.34 2 3 C0.824375 4.485 0.824375 4.485 -0.375 6 C-1.24125 6.99 -2.1075 7.98 -3 9 C-3.66 9 -4.32 9 -5 9 C-3.7508258 5.54074837 -2.32472205 2.85306797 0 0 Z " fill="#3A9A30" transform="translate(732,831)"/>
<path d="M0 0 C0 0.66 0 1.32 0 2 C-0.79664063 2.38091797 -0.79664063 2.38091797 -1.609375 2.76953125 C-5.3324172 4.58349524 -8.79762215 6.3313518 -12 9 C-11.60987467 6.56561796 -11.28087964 5.28014242 -9.51171875 3.515625 C-8.60873047 2.88914062 -8.60873047 2.88914062 -7.6875 2.25 C-6.79611328 1.60804688 -6.79611328 1.60804688 -5.88671875 0.953125 C-4 0 -4 0 0 0 Z " fill="#77E067" transform="translate(744,778)"/>
<path d="M0 0 C2.89932357 2.39509338 3.50168276 4.31245243 4 8 C3.01 8 2.02 8 1 8 C0.67 6.35 0.34 4.7 0 3 C-2.97 3 -5.94 3 -9 3 C-9 2.67 -9 2.34 -9 2 C-6.03 2 -3.06 2 0 2 C0 1.34 0 0.68 0 0 Z " fill="#71DC61" transform="translate(474,917)"/>
<path d="M0 0 C4.29 0 8.58 0 13 0 C13 0.33 13 0.66 13 1 C11.39125 1.0928125 11.39125 1.0928125 9.75 1.1875 C5.86468039 1.66145959 5.86468039 1.66145959 3.5625 4.5625 C3.046875 5.366875 2.53125 6.17125 2 7 C1.34 4.69 0.68 2.38 0 0 Z " fill="#0D0D0D" transform="translate(560,821)"/>
<path d="M0 0 C0.66 0.33 1.32 0.66 2 1 C0.68 3.31 -0.64 5.62 -2 8 C-2.66 8 -3.32 8 -4 8 C-4.66 9.32 -5.32 10.64 -6 12 C-6.33 11.01 -6.66 10.02 -7 9 C-5.56640625 6.73828125 -5.56640625 6.73828125 -3.5625 4.3125 C-2.90378906 3.50425781 -2.24507812 2.69601562 -1.56640625 1.86328125 C-1.04949219 1.24839844 -0.53257812 0.63351562 0 0 Z " fill="#78DA59" transform="translate(733,393)"/>
<path d="M0 0 C4.23303235 3.34704884 7.84329006 6.59973766 11 11 C10.67 11.99 10.34 12.98 10 14 C6.97544234 11.13462959 4.8017949 8.73228945 3 5 C2.01 4.34 1.02 3.68 0 3 C0 2.01 0 1.02 0 0 Z " fill="#95E260" transform="translate(508,355)"/>
<path d="M0 0 C5.27315333 0.4452885 10.01770224 1.08373163 15 3 C13.4375 4.125 13.4375 4.125 11 5 C7.05378919 4.1543834 3.52294061 2.97284674 0 1 C0 0.67 0 0.34 0 0 Z " fill="#B6F16D" transform="translate(456,320)"/>
<path d="M0 0 C2.93200474 2.85276137 5.64315404 5.65079784 8 9 C7.01 9.99 6.02 10.98 5 12 C4.16180842 10.37750059 3.3295884 8.75191503 2.5 7.125 C2.0359375 6.22007812 1.571875 5.31515625 1.09375 4.3828125 C0 2 0 2 0 0 Z " fill="#0B280E" transform="translate(581,568)"/>
<path d="M0 0 C2.31 0 4.62 0 7 0 C7 2.31 7 4.62 7 7 C6.67 7 6.34 7 6 7 C6 5.02 6 3.04 6 1 C5.34 1 4.68 1 4 1 C3.71125 1.61875 3.4225 2.2375 3.125 2.875 C2 5 2 5 0 7 C0 4.69 0 2.38 0 0 Z " fill="#8AED68" transform="translate(830,490)"/>
<path d="M0 0 C7.75 1.625 7.75 1.625 10 5 C7.03 5 4.06 5 1 5 C0.67 3.35 0.34 1.7 0 0 Z " fill="#50AD4D" transform="translate(821,920)"/>
<path d="M0 0 C4.00653305 0.6163897 6.80463901 2.58572726 10 5 C10.33 5.99 10.66 6.98 11 8 C7.22272911 6.18690997 3.62730178 4.0926741 0 2 C0 1.34 0 0.68 0 0 Z " fill="#6FCC59" transform="translate(838,504)"/>
<path d="M0 0 C1.98 0 3.96 0 6 0 C6.33 1.65 6.66 3.3 7 5 C4.69 4.67 2.38 4.34 0 4 C0 2.68 0 1.36 0 0 Z " fill="#070D06" transform="translate(494,911)"/>
<path d="M0 0 C0.99 0 1.98 0 3 0 C1.76470063 4.94119746 0.33811434 7.27606774 -4 10 C-6.8125 10.75 -6.8125 10.75 -9 11 C-6.9651159 9.47383692 -4.96754408 7.97959914 -2.8125 6.625 C-0.50586217 4.55697988 -0.32652628 3.02036813 0 0 Z " fill="#3EA234" transform="translate(776,829)"/>
<path d="M0 0 C1.41623216 -0.05447047 2.83308191 -0.09300508 4.25 -0.125 C5.03890625 -0.14820313 5.8278125 -0.17140625 6.640625 -0.1953125 C9.20731941 0.0171622 10.7916067 0.71345895 13 2 C8.61414671 2.70173653 4.44209357 3.10834375 0 3 C0 2.01 0 1.02 0 0 Z " fill="#122912" transform="translate(1000,790)"/>
<path d="M0 0 C3.36591866 1.44253657 5.51047079 3.33264727 8 6 C7.236875 5.67 6.47375 5.34 5.6875 5 C3.00930865 3.82563314 3.00930865 3.82563314 0 4 C-0.99 5.485 -0.99 5.485 -2 7 C-2.66 7 -3.32 7 -4 7 C-2.92598892 4.08482708 -2.22189824 2.22189824 0 0 Z " fill="#399332" transform="translate(816,538)"/>
<path d="M0 0 C5.94 0.99 5.94 0.99 12 2 C12 2.66 12 3.32 12 4 C10.56416999 4.10836453 9.1259798 4.18576167 7.6875 4.25 C6.48673828 4.31960938 6.48673828 4.31960938 5.26171875 4.390625 C3 4 3 4 0 0 Z " fill="#62C55B" transform="translate(789,921)"/>
<path d="M0 0 C0.91007813 0.00902344 1.82015625 0.01804687 2.7578125 0.02734375 C3.45648437 0.03894531 4.15515625 0.05054688 4.875 0.0625 C4.875 0.3925 4.875 0.7225 4.875 1.0625 C1.905 1.0625 -1.065 1.0625 -4.125 1.0625 C-4.455 2.7125 -4.785 4.3625 -5.125 6.0625 C-6.115 6.0625 -7.105 6.0625 -8.125 6.0625 C-7.75 3.625 -7.75 3.625 -7.125 1.0625 C-4.60024538 -0.19987731 -2.81299534 -0.03606404 0 0 Z " fill="#5FCE55" transform="translate(670.125,918.9375)"/>
<path d="M0 0 C2 3 2 3 1.7578125 5.04296875 C1.171875 7.02864583 0.5859375 9.01432292 0 11 C-1.5625 9.75 -1.5625 9.75 -3 8 C-2.71225849 5.02667109 -1.39923409 2.61190363 0 0 Z " fill="#54B14F" transform="translate(636,914)"/>
<path d="M0 0 C1.5 1.25 1.5 1.25 3 3 C3 4.32 3 5.64 3 7 C1.35 7 -0.3 7 -2 7 C-1.125 2.25 -1.125 2.25 0 0 Z " fill="#0A160A" transform="translate(335,911)"/>
<path d="M0 0 C0.99 0 1.98 0 3 0 C1.80100302 3.0831351 0.52299523 6.06279492 -1 9 C-1.66 9 -2.32 9 -3 9 C-2.5020163 5.26512223 -2.12508244 3.18762365 0 0 Z " fill="#66CB58" transform="translate(775,906)"/>
<path d="M0 0 C0.66 0 1.32 0 2 0 C2.33 1.98 2.66 3.96 3 6 C2.34 6 1.68 6 1 6 C0.67 6.66 0.34 7.32 0 8 C-0.99 8.495 -0.99 8.495 -2 9 C-1.51421457 5.87709365 -1.0013988 3.00419641 0 0 Z " fill="#142E16" transform="translate(303,912)"/>
<path d="M0 0 C3.875 1.875 3.875 1.875 5 3 C5.14115161 5.67058851 5.04247107 8.32432238 5 11 C4.731875 10.4225 4.46375 9.845 4.1875 9.25 C3.05815166 6.94603902 3.05815166 6.94603902 1.375 4.9375 C0 3 0 3 0 0 Z " fill="#5ECC56" transform="translate(731,907)"/>
<path d="M0 0 C0.33 0 0.66 0 1 0 C1.24915939 1.76813112 1.47366632 3.53974982 1.6875 5.3125 C1.81511719 6.29863281 1.94273437 7.28476562 2.07421875 8.30078125 C2 11 2 11 -1 14 C-0.67 9.38 -0.34 4.76 0 0 Z " fill="#308631" transform="translate(560,546)"/>
<path d="M0 0 C0.66 0 1.32 0 2 0 C2.3125 3.3125 2.3125 3.3125 2 7 C-0.5 8.9375 -0.5 8.9375 -3 10 C-3 9.01 -3 8.02 -3 7 C-2.34 6.67 -1.68 6.34 -1 6 C-0.34227572 2.97065509 -0.34227572 2.97065509 0 0 Z " fill="#67D45F" transform="translate(502,909)"/>
<path d="M0 0 C0.99 0.33 1.98 0.66 3 1 C1.35 2.65 -0.3 4.3 -2 6 C-2.99 5.34 -3.98 4.68 -5 4 C-2.6875 1.9375 -2.6875 1.9375 0 0 Z " fill="#7FE36D" transform="translate(982,780)"/>
<path d="M0 0 C0.66 0 1.32 0 2 0 C3.4375 1.6796875 3.4375 1.6796875 5 3.875 C6.59356457 6.09802257 8.06234725 8.06234725 10 10 C6 10 6 10 4.296875 8.3203125 C3.78640625 7.59585938 3.2759375 6.87140625 2.75 6.125 C2.22921875 5.40570312 1.7084375 4.68640625 1.171875 3.9453125 C0 2 0 2 0 0 Z " fill="#377E31" transform="translate(665,584)"/>
<path d="M0 0 C0.66 0 1.32 0 2 0 C0.6062718 4.43458973 -1.60582235 6.87378374 -5 10 C-4.49890042 5.61537866 -3.01704885 3.1999003 0 0 Z " fill="#65D24E" transform="translate(707,430)"/>
<path d="M0 0 C0.99 0.33 1.98 0.66 3 1 C0.69 3.64 -1.62 6.28 -4 9 C-4.33 8.01 -4.66 7.02 -5 6 C-3.59554165 3.7363436 -1.8032087 1.9791315 0 0 Z " fill="#71D756" transform="translate(723,407)"/>
<path d="M0 0 C0.33 0 0.66 0 1 0 C1 1.65 1 3.3 1 5 C1.66 5.33 2.32 5.66 3 6 C1.68 7.98 0.36 9.96 -1 12 C-1.66 10.68 -2.32 9.36 -3 8 C-2.34 7.34 -1.68 6.68 -1 6 C-0.60235737 4.01178687 -0.26224651 2.01055661 0 0 Z " fill="#132D16" transform="translate(504,910)"/>
<path d="M0 0 C1.98 0 3.96 0 6 0 C5.01 0.495 5.01 0.495 4 1 C3.7834375 1.99 3.7834375 1.99 3.5625 3 C3.376875 3.66 3.19125 4.32 3 5 C2.01 5.33 1.02 5.66 0 6 C0 4.02 0 2.04 0 0 Z " fill="#112713" transform="translate(850,919)"/>
<path d="M0 0 C0.66 0.33 1.32 0.66 2 1 C2 3.31 2 5.62 2 8 C1.01 8.33 0.02 8.66 -1 9 C-0.979375 8.05125 -0.95875 7.1025 -0.9375 6.125 C-0.77448174 3.09333717 -0.77448174 3.09333717 -2 1 C-1.34 0.67 -0.68 0.34 0 0 Z " fill="#6CD460" transform="translate(588,908)"/>
<path d="M0 0 C0.66 0.66 1.32 1.32 2 2 C0.7260411 4.03833424 -0.61061923 6.03852126 -2 8 C-2.66 8 -3.32 8 -4 8 C-4.33 7.01 -4.66 6.02 -5 5 C-3.35 3.35 -1.7 1.7 0 0 Z " fill="#151516" transform="translate(276,799)"/>
<path d="M0 0 C2.93200474 2.85276137 5.64315404 5.65079784 8 9 C5.62051228 8.82374165 4.29774151 8.30280227 2.62109375 6.59765625 C1.37884514 5.09350908 0.18623944 3.54870149 -1 2 C-0.67 1.34 -0.34 0.68 0 0 Z " fill="#81CE55" transform="translate(519,367)"/>
<path d="M0 0 C0.33 0 0.66 0 1 0 C0.88637738 1.4800841 0.75877092 2.95910074 0.625 4.4375 C0.52058594 5.67306641 0.52058594 5.67306641 0.4140625 6.93359375 C0.27742187 7.61550781 0.14078125 8.29742188 0 9 C-0.99 9.495 -0.99 9.495 -2 10 C-2.25 3.375 -2.25 3.375 0 0 Z " fill="#65CE5F" transform="translate(650,912)"/>
<path d="M0 0 C1.485 0.99 1.485 0.99 3 2 C2.67 4.31 2.34 6.62 2 9 C0.25165733 6.377486 -0.51529754 5.00515522 -1 2 C-0.67 1.34 -0.34 0.68 0 0 Z " fill="#060D06" transform="translate(309,911)"/>
<path d="M0 0 C-0.33 0.99 -0.66 1.98 -1 3 C-3.31 3.33 -5.62 3.66 -8 4 C-8 3.01 -8 2.02 -8 1 C-5.10765685 0.17361624 -3.11257569 0 0 0 Z " fill="#77D664" transform="translate(904,775)"/>
<path d="M0 0 C2 3 2 3 1.75 6.625 C1.5025 7.73875 1.255 8.8525 1 10 C0.01 10.495 0.01 10.495 -1 11 C-0.67 7.37 -0.34 3.74 0 0 Z " fill="#2F8231" transform="translate(559,561)"/>
<path d="M0 0 C2.97 0 5.94 0 9 0 C6.01193893 1.49403054 3.10343799 2.79310745 0 4 C0 2.68 0 1.36 0 0 Z " fill="#09170B" transform="translate(606,917)"/>
<path d="M0 0 C1.32 0 2.64 0 4 0 C3.67 1.98 3.34 3.96 3 6 C2.34 6 1.68 6 1 6 C0.67 4.02 0.34 2.04 0 0 Z " fill="#112110" transform="translate(296,914)"/>
<path d="M0 0 C0.66 1.32 1.32 2.64 2 4 C1.01 5.485 1.01 5.485 0 7 C-2 5 -2 5 -3 2 C-2.01 1.34 -1.02 0.68 0 0 Z " fill="#52AD47" transform="translate(673,907)"/>
<path d="M0 0 C2.1991413 4.39828259 2.51855059 7.18550592 3 12 C2.01 12 1.02 12 0 12 C0 8.04 0 4.08 0 0 Z " fill="#328C2B" transform="translate(856,839)"/>
<path d="M0 0 C0.66 0.33 1.32 0.66 2 1 C1.1875 4.4375 1.1875 4.4375 0 8 C-0.99 8.33 -1.98 8.66 -3 9 C-2.01 6.03 -1.02 3.06 0 0 Z " fill="#DBDADB" transform="translate(688,796)"/>
<path d="M0 0 C1.98 1.65 3.96 3.3 6 5 C5.67 6.32 5.34 7.64 5 9 C5 8.01 5 7.02 5 6 C4.38125 5.731875 3.7625 5.46375 3.125 5.1875 C1 4 1 4 -1 1 C-0.67 0.67 -0.34 0.34 0 0 Z " fill="#9CE85E" transform="translate(501,347)"/>
<path d="M0 0 C3.63 0 7.26 0 11 0 C11 0.33 11 0.66 11 1 C9.7625 1.12375 8.525 1.2475 7.25 1.375 C4.1237803 1.75746305 1.71120763 2.30549523 -1 4 C-0.67 2.68 -0.34 1.36 0 0 Z " fill="#112812" transform="translate(463,921)"/>
<path d="M0 0 C0.66 0.66 1.32 1.32 2 2 C1.01 4.31 0.02 6.62 -1 9 C-1.66 8.67 -2.32 8.34 -3 8 C-3 5 -3 5 -1 3 C-0.67 2.01 -0.34 1.02 0 0 Z " fill="#121213" transform="translate(674,823)"/>
<path d="M0 0 C4.77576339 0.4682121 8.04476345 1.24331998 12 4 C10 5 10 5 7.6171875 4.22265625 C6.71226562 3.83980469 5.80734375 3.45695313 4.875 3.0625 C3.50988281 2.49208984 3.50988281 2.49208984 2.1171875 1.91015625 C1.41851563 1.60980469 0.71984375 1.30945313 0 1 C0 0.67 0 0.34 0 0 Z " fill="#83E86E" transform="translate(920,777)"/>
<path d="M0 0 C3.3 0.33 6.6 0.66 10 1 C10 1.66 10 2.32 10 3 C2.25 2.25 2.25 2.25 0 0 Z " fill="#2F6B27" transform="translate(820,551)"/>
<path d="M0 0 C2.0625 0.4375 2.0625 0.4375 4 1 C4 3.31 4 5.62 4 8 C3.731875 7.401875 3.46375 6.80375 3.1875 6.1875 C2.01506533 4.02775192 0.80630718 2.64209744 -1 1 C-0.67 0.67 -0.34 0.34 0 0 Z " fill="#67D75D" transform="translate(702,907)"/>
<path d="M0 0 C7.75 -0.125 7.75 -0.125 10 1 C10 1.99 10 2.98 10 4 C9.01 4 8.02 4 7 4 C7 3.01 7 2.02 7 1 C4.69 1 2.38 1 0 1 C0 0.67 0 0.34 0 0 Z " fill="#50B248" transform="translate(877,906)"/>
<path d="M0 0 C0.99 0 1.98 0 3 0 C2.67 1.65 2.34 3.3 2 5 C1.34 5 0.68 5 0 5 C-0.66 5.99 -1.32 6.98 -2 8 C-1.125 1.125 -1.125 1.125 0 0 Z " fill="#529E49" transform="translate(315,906)"/>
</svg>
